G04 #@! TF.GenerationSoftware,KiCad,Pcbnew,5.1.9+dfsg1-1~bpo10+1*
G04 #@! TF.CreationDate,2021-10-28T18:47:32+00:00*
G04 #@! TF.ProjectId,120-channel-test-board,3132302d-6368-4616-9e6e-656c2d746573,v1.2*
G04 #@! TF.SameCoordinates,Original*
G04 #@! TF.FileFunction,Soldermask,Top*
G04 #@! TF.FilePolarity,Negative*
%FSLAX46Y46*%
G04 Gerber Fmt 4.6, Leading zero omitted, Abs format (unit mm)*
G04 Created by KiCad (PCBNEW 5.1.9+dfsg1-1~bpo10+1) date 2021-10-28 18:47:32*
%MOMM*%
%LPD*%
G01*
G04 APERTURE LIST*
G04 APERTURE END LIST*
G36*
G01*
X77121000Y-43980000D02*
X77121000Y-42380000D01*
G75*
G02*
X77375000Y-42126000I254000J0D01*
G01*
X78375000Y-42126000D01*
G75*
G02*
X78629000Y-42380000I0J-254000D01*
G01*
X78629000Y-43980000D01*
G75*
G02*
X78375000Y-44234000I-254000J0D01*
G01*
X77375000Y-44234000D01*
G75*
G02*
X77121000Y-43980000I0J254000D01*
G01*
G37*
G36*
G01*
X80121000Y-43980000D02*
X80121000Y-42380000D01*
G75*
G02*
X80375000Y-42126000I254000J0D01*
G01*
X81375000Y-42126000D01*
G75*
G02*
X81629000Y-42380000I0J-254000D01*
G01*
X81629000Y-43980000D01*
G75*
G02*
X81375000Y-44234000I-254000J0D01*
G01*
X80375000Y-44234000D01*
G75*
G02*
X80121000Y-43980000I0J254000D01*
G01*
G37*
G36*
G01*
X83471000Y-43980000D02*
X83471000Y-42380000D01*
G75*
G02*
X83725000Y-42126000I254000J0D01*
G01*
X84725000Y-42126000D01*
G75*
G02*
X84979000Y-42380000I0J-254000D01*
G01*
X84979000Y-43980000D01*
G75*
G02*
X84725000Y-44234000I-254000J0D01*
G01*
X83725000Y-44234000D01*
G75*
G02*
X83471000Y-43980000I0J254000D01*
G01*
G37*
G36*
G01*
X86471000Y-43980000D02*
X86471000Y-42380000D01*
G75*
G02*
X86725000Y-42126000I254000J0D01*
G01*
X87725000Y-42126000D01*
G75*
G02*
X87979000Y-42380000I0J-254000D01*
G01*
X87979000Y-43980000D01*
G75*
G02*
X87725000Y-44234000I-254000J0D01*
G01*
X86725000Y-44234000D01*
G75*
G02*
X86471000Y-43980000I0J254000D01*
G01*
G37*
G36*
G01*
X89821000Y-43980000D02*
X89821000Y-42380000D01*
G75*
G02*
X90075000Y-42126000I254000J0D01*
G01*
X91075000Y-42126000D01*
G75*
G02*
X91329000Y-42380000I0J-254000D01*
G01*
X91329000Y-43980000D01*
G75*
G02*
X91075000Y-44234000I-254000J0D01*
G01*
X90075000Y-44234000D01*
G75*
G02*
X89821000Y-43980000I0J254000D01*
G01*
G37*
G36*
G01*
X92821000Y-43980000D02*
X92821000Y-42380000D01*
G75*
G02*
X93075000Y-42126000I254000J0D01*
G01*
X94075000Y-42126000D01*
G75*
G02*
X94329000Y-42380000I0J-254000D01*
G01*
X94329000Y-43980000D01*
G75*
G02*
X94075000Y-44234000I-254000J0D01*
G01*
X93075000Y-44234000D01*
G75*
G02*
X92821000Y-43980000I0J254000D01*
G01*
G37*
G36*
G01*
X96171000Y-43980000D02*
X96171000Y-42380000D01*
G75*
G02*
X96425000Y-42126000I254000J0D01*
G01*
X97425000Y-42126000D01*
G75*
G02*
X97679000Y-42380000I0J-254000D01*
G01*
X97679000Y-43980000D01*
G75*
G02*
X97425000Y-44234000I-254000J0D01*
G01*
X96425000Y-44234000D01*
G75*
G02*
X96171000Y-43980000I0J254000D01*
G01*
G37*
G36*
G01*
X99171000Y-43980000D02*
X99171000Y-42380000D01*
G75*
G02*
X99425000Y-42126000I254000J0D01*
G01*
X100425000Y-42126000D01*
G75*
G02*
X100679000Y-42380000I0J-254000D01*
G01*
X100679000Y-43980000D01*
G75*
G02*
X100425000Y-44234000I-254000J0D01*
G01*
X99425000Y-44234000D01*
G75*
G02*
X99171000Y-43980000I0J254000D01*
G01*
G37*
G36*
G01*
X77121000Y-46520000D02*
X77121000Y-44920000D01*
G75*
G02*
X77375000Y-44666000I254000J0D01*
G01*
X78375000Y-44666000D01*
G75*
G02*
X78629000Y-44920000I0J-254000D01*
G01*
X78629000Y-46520000D01*
G75*
G02*
X78375000Y-46774000I-254000J0D01*
G01*
X77375000Y-46774000D01*
G75*
G02*
X77121000Y-46520000I0J254000D01*
G01*
G37*
G36*
G01*
X80121000Y-46520000D02*
X80121000Y-44920000D01*
G75*
G02*
X80375000Y-44666000I254000J0D01*
G01*
X81375000Y-44666000D01*
G75*
G02*
X81629000Y-44920000I0J-254000D01*
G01*
X81629000Y-46520000D01*
G75*
G02*
X81375000Y-46774000I-254000J0D01*
G01*
X80375000Y-46774000D01*
G75*
G02*
X80121000Y-46520000I0J254000D01*
G01*
G37*
G36*
G01*
X83471000Y-46520000D02*
X83471000Y-44920000D01*
G75*
G02*
X83725000Y-44666000I254000J0D01*
G01*
X84725000Y-44666000D01*
G75*
G02*
X84979000Y-44920000I0J-254000D01*
G01*
X84979000Y-46520000D01*
G75*
G02*
X84725000Y-46774000I-254000J0D01*
G01*
X83725000Y-46774000D01*
G75*
G02*
X83471000Y-46520000I0J254000D01*
G01*
G37*
G36*
G01*
X86471000Y-46520000D02*
X86471000Y-44920000D01*
G75*
G02*
X86725000Y-44666000I254000J0D01*
G01*
X87725000Y-44666000D01*
G75*
G02*
X87979000Y-44920000I0J-254000D01*
G01*
X87979000Y-46520000D01*
G75*
G02*
X87725000Y-46774000I-254000J0D01*
G01*
X86725000Y-46774000D01*
G75*
G02*
X86471000Y-46520000I0J254000D01*
G01*
G37*
G36*
G01*
X89821000Y-46520000D02*
X89821000Y-44920000D01*
G75*
G02*
X90075000Y-44666000I254000J0D01*
G01*
X91075000Y-44666000D01*
G75*
G02*
X91329000Y-44920000I0J-254000D01*
G01*
X91329000Y-46520000D01*
G75*
G02*
X91075000Y-46774000I-254000J0D01*
G01*
X90075000Y-46774000D01*
G75*
G02*
X89821000Y-46520000I0J254000D01*
G01*
G37*
G36*
G01*
X92821000Y-46520000D02*
X92821000Y-44920000D01*
G75*
G02*
X93075000Y-44666000I254000J0D01*
G01*
X94075000Y-44666000D01*
G75*
G02*
X94329000Y-44920000I0J-254000D01*
G01*
X94329000Y-46520000D01*
G75*
G02*
X94075000Y-46774000I-254000J0D01*
G01*
X93075000Y-46774000D01*
G75*
G02*
X92821000Y-46520000I0J254000D01*
G01*
G37*
G36*
G01*
X96171000Y-46520000D02*
X96171000Y-44920000D01*
G75*
G02*
X96425000Y-44666000I254000J0D01*
G01*
X97425000Y-44666000D01*
G75*
G02*
X97679000Y-44920000I0J-254000D01*
G01*
X97679000Y-46520000D01*
G75*
G02*
X97425000Y-46774000I-254000J0D01*
G01*
X96425000Y-46774000D01*
G75*
G02*
X96171000Y-46520000I0J254000D01*
G01*
G37*
G36*
G01*
X99171000Y-46520000D02*
X99171000Y-44920000D01*
G75*
G02*
X99425000Y-44666000I254000J0D01*
G01*
X100425000Y-44666000D01*
G75*
G02*
X100679000Y-44920000I0J-254000D01*
G01*
X100679000Y-46520000D01*
G75*
G02*
X100425000Y-46774000I-254000J0D01*
G01*
X99425000Y-46774000D01*
G75*
G02*
X99171000Y-46520000I0J254000D01*
G01*
G37*
G36*
G01*
X77121000Y-49060000D02*
X77121000Y-47460000D01*
G75*
G02*
X77375000Y-47206000I254000J0D01*
G01*
X78375000Y-47206000D01*
G75*
G02*
X78629000Y-47460000I0J-254000D01*
G01*
X78629000Y-49060000D01*
G75*
G02*
X78375000Y-49314000I-254000J0D01*
G01*
X77375000Y-49314000D01*
G75*
G02*
X77121000Y-49060000I0J254000D01*
G01*
G37*
G36*
G01*
X80121000Y-49060000D02*
X80121000Y-47460000D01*
G75*
G02*
X80375000Y-47206000I254000J0D01*
G01*
X81375000Y-47206000D01*
G75*
G02*
X81629000Y-47460000I0J-254000D01*
G01*
X81629000Y-49060000D01*
G75*
G02*
X81375000Y-49314000I-254000J0D01*
G01*
X80375000Y-49314000D01*
G75*
G02*
X80121000Y-49060000I0J254000D01*
G01*
G37*
G36*
G01*
X83471000Y-49060000D02*
X83471000Y-47460000D01*
G75*
G02*
X83725000Y-47206000I254000J0D01*
G01*
X84725000Y-47206000D01*
G75*
G02*
X84979000Y-47460000I0J-254000D01*
G01*
X84979000Y-49060000D01*
G75*
G02*
X84725000Y-49314000I-254000J0D01*
G01*
X83725000Y-49314000D01*
G75*
G02*
X83471000Y-49060000I0J254000D01*
G01*
G37*
G36*
G01*
X86471000Y-49060000D02*
X86471000Y-47460000D01*
G75*
G02*
X86725000Y-47206000I254000J0D01*
G01*
X87725000Y-47206000D01*
G75*
G02*
X87979000Y-47460000I0J-254000D01*
G01*
X87979000Y-49060000D01*
G75*
G02*
X87725000Y-49314000I-254000J0D01*
G01*
X86725000Y-49314000D01*
G75*
G02*
X86471000Y-49060000I0J254000D01*
G01*
G37*
G36*
G01*
X89821000Y-49060000D02*
X89821000Y-47460000D01*
G75*
G02*
X90075000Y-47206000I254000J0D01*
G01*
X91075000Y-47206000D01*
G75*
G02*
X91329000Y-47460000I0J-254000D01*
G01*
X91329000Y-49060000D01*
G75*
G02*
X91075000Y-49314000I-254000J0D01*
G01*
X90075000Y-49314000D01*
G75*
G02*
X89821000Y-49060000I0J254000D01*
G01*
G37*
G36*
G01*
X92821000Y-49060000D02*
X92821000Y-47460000D01*
G75*
G02*
X93075000Y-47206000I254000J0D01*
G01*
X94075000Y-47206000D01*
G75*
G02*
X94329000Y-47460000I0J-254000D01*
G01*
X94329000Y-49060000D01*
G75*
G02*
X94075000Y-49314000I-254000J0D01*
G01*
X93075000Y-49314000D01*
G75*
G02*
X92821000Y-49060000I0J254000D01*
G01*
G37*
G36*
G01*
X96171000Y-49060000D02*
X96171000Y-47460000D01*
G75*
G02*
X96425000Y-47206000I254000J0D01*
G01*
X97425000Y-47206000D01*
G75*
G02*
X97679000Y-47460000I0J-254000D01*
G01*
X97679000Y-49060000D01*
G75*
G02*
X97425000Y-49314000I-254000J0D01*
G01*
X96425000Y-49314000D01*
G75*
G02*
X96171000Y-49060000I0J254000D01*
G01*
G37*
G36*
G01*
X99171000Y-49060000D02*
X99171000Y-47460000D01*
G75*
G02*
X99425000Y-47206000I254000J0D01*
G01*
X100425000Y-47206000D01*
G75*
G02*
X100679000Y-47460000I0J-254000D01*
G01*
X100679000Y-49060000D01*
G75*
G02*
X100425000Y-49314000I-254000J0D01*
G01*
X99425000Y-49314000D01*
G75*
G02*
X99171000Y-49060000I0J254000D01*
G01*
G37*
G36*
G01*
X77121000Y-51600000D02*
X77121000Y-50000000D01*
G75*
G02*
X77375000Y-49746000I254000J0D01*
G01*
X78375000Y-49746000D01*
G75*
G02*
X78629000Y-50000000I0J-254000D01*
G01*
X78629000Y-51600000D01*
G75*
G02*
X78375000Y-51854000I-254000J0D01*
G01*
X77375000Y-51854000D01*
G75*
G02*
X77121000Y-51600000I0J254000D01*
G01*
G37*
G36*
G01*
X80121000Y-51600000D02*
X80121000Y-50000000D01*
G75*
G02*
X80375000Y-49746000I254000J0D01*
G01*
X81375000Y-49746000D01*
G75*
G02*
X81629000Y-50000000I0J-254000D01*
G01*
X81629000Y-51600000D01*
G75*
G02*
X81375000Y-51854000I-254000J0D01*
G01*
X80375000Y-51854000D01*
G75*
G02*
X80121000Y-51600000I0J254000D01*
G01*
G37*
G36*
G01*
X83471000Y-51600000D02*
X83471000Y-50000000D01*
G75*
G02*
X83725000Y-49746000I254000J0D01*
G01*
X84725000Y-49746000D01*
G75*
G02*
X84979000Y-50000000I0J-254000D01*
G01*
X84979000Y-51600000D01*
G75*
G02*
X84725000Y-51854000I-254000J0D01*
G01*
X83725000Y-51854000D01*
G75*
G02*
X83471000Y-51600000I0J254000D01*
G01*
G37*
G36*
G01*
X86471000Y-51600000D02*
X86471000Y-50000000D01*
G75*
G02*
X86725000Y-49746000I254000J0D01*
G01*
X87725000Y-49746000D01*
G75*
G02*
X87979000Y-50000000I0J-254000D01*
G01*
X87979000Y-51600000D01*
G75*
G02*
X87725000Y-51854000I-254000J0D01*
G01*
X86725000Y-51854000D01*
G75*
G02*
X86471000Y-51600000I0J254000D01*
G01*
G37*
G36*
G01*
X89821000Y-51600000D02*
X89821000Y-50000000D01*
G75*
G02*
X90075000Y-49746000I254000J0D01*
G01*
X91075000Y-49746000D01*
G75*
G02*
X91329000Y-50000000I0J-254000D01*
G01*
X91329000Y-51600000D01*
G75*
G02*
X91075000Y-51854000I-254000J0D01*
G01*
X90075000Y-51854000D01*
G75*
G02*
X89821000Y-51600000I0J254000D01*
G01*
G37*
G36*
G01*
X92821000Y-51600000D02*
X92821000Y-50000000D01*
G75*
G02*
X93075000Y-49746000I254000J0D01*
G01*
X94075000Y-49746000D01*
G75*
G02*
X94329000Y-50000000I0J-254000D01*
G01*
X94329000Y-51600000D01*
G75*
G02*
X94075000Y-51854000I-254000J0D01*
G01*
X93075000Y-51854000D01*
G75*
G02*
X92821000Y-51600000I0J254000D01*
G01*
G37*
G36*
G01*
X96171000Y-51600000D02*
X96171000Y-50000000D01*
G75*
G02*
X96425000Y-49746000I254000J0D01*
G01*
X97425000Y-49746000D01*
G75*
G02*
X97679000Y-50000000I0J-254000D01*
G01*
X97679000Y-51600000D01*
G75*
G02*
X97425000Y-51854000I-254000J0D01*
G01*
X96425000Y-51854000D01*
G75*
G02*
X96171000Y-51600000I0J254000D01*
G01*
G37*
G36*
G01*
X99171000Y-51600000D02*
X99171000Y-50000000D01*
G75*
G02*
X99425000Y-49746000I254000J0D01*
G01*
X100425000Y-49746000D01*
G75*
G02*
X100679000Y-50000000I0J-254000D01*
G01*
X100679000Y-51600000D01*
G75*
G02*
X100425000Y-51854000I-254000J0D01*
G01*
X99425000Y-51854000D01*
G75*
G02*
X99171000Y-51600000I0J254000D01*
G01*
G37*
G36*
G01*
X77121000Y-54140000D02*
X77121000Y-52540000D01*
G75*
G02*
X77375000Y-52286000I254000J0D01*
G01*
X78375000Y-52286000D01*
G75*
G02*
X78629000Y-52540000I0J-254000D01*
G01*
X78629000Y-54140000D01*
G75*
G02*
X78375000Y-54394000I-254000J0D01*
G01*
X77375000Y-54394000D01*
G75*
G02*
X77121000Y-54140000I0J254000D01*
G01*
G37*
G36*
G01*
X80121000Y-54140000D02*
X80121000Y-52540000D01*
G75*
G02*
X80375000Y-52286000I254000J0D01*
G01*
X81375000Y-52286000D01*
G75*
G02*
X81629000Y-52540000I0J-254000D01*
G01*
X81629000Y-54140000D01*
G75*
G02*
X81375000Y-54394000I-254000J0D01*
G01*
X80375000Y-54394000D01*
G75*
G02*
X80121000Y-54140000I0J254000D01*
G01*
G37*
G36*
G01*
X83471000Y-54140000D02*
X83471000Y-52540000D01*
G75*
G02*
X83725000Y-52286000I254000J0D01*
G01*
X84725000Y-52286000D01*
G75*
G02*
X84979000Y-52540000I0J-254000D01*
G01*
X84979000Y-54140000D01*
G75*
G02*
X84725000Y-54394000I-254000J0D01*
G01*
X83725000Y-54394000D01*
G75*
G02*
X83471000Y-54140000I0J254000D01*
G01*
G37*
G36*
G01*
X86471000Y-54140000D02*
X86471000Y-52540000D01*
G75*
G02*
X86725000Y-52286000I254000J0D01*
G01*
X87725000Y-52286000D01*
G75*
G02*
X87979000Y-52540000I0J-254000D01*
G01*
X87979000Y-54140000D01*
G75*
G02*
X87725000Y-54394000I-254000J0D01*
G01*
X86725000Y-54394000D01*
G75*
G02*
X86471000Y-54140000I0J254000D01*
G01*
G37*
G36*
G01*
X89821000Y-54140000D02*
X89821000Y-52540000D01*
G75*
G02*
X90075000Y-52286000I254000J0D01*
G01*
X91075000Y-52286000D01*
G75*
G02*
X91329000Y-52540000I0J-254000D01*
G01*
X91329000Y-54140000D01*
G75*
G02*
X91075000Y-54394000I-254000J0D01*
G01*
X90075000Y-54394000D01*
G75*
G02*
X89821000Y-54140000I0J254000D01*
G01*
G37*
G36*
G01*
X92821000Y-54140000D02*
X92821000Y-52540000D01*
G75*
G02*
X93075000Y-52286000I254000J0D01*
G01*
X94075000Y-52286000D01*
G75*
G02*
X94329000Y-52540000I0J-254000D01*
G01*
X94329000Y-54140000D01*
G75*
G02*
X94075000Y-54394000I-254000J0D01*
G01*
X93075000Y-54394000D01*
G75*
G02*
X92821000Y-54140000I0J254000D01*
G01*
G37*
G36*
G01*
X96171000Y-54140000D02*
X96171000Y-52540000D01*
G75*
G02*
X96425000Y-52286000I254000J0D01*
G01*
X97425000Y-52286000D01*
G75*
G02*
X97679000Y-52540000I0J-254000D01*
G01*
X97679000Y-54140000D01*
G75*
G02*
X97425000Y-54394000I-254000J0D01*
G01*
X96425000Y-54394000D01*
G75*
G02*
X96171000Y-54140000I0J254000D01*
G01*
G37*
G36*
G01*
X99171000Y-54140000D02*
X99171000Y-52540000D01*
G75*
G02*
X99425000Y-52286000I254000J0D01*
G01*
X100425000Y-52286000D01*
G75*
G02*
X100679000Y-52540000I0J-254000D01*
G01*
X100679000Y-54140000D01*
G75*
G02*
X100425000Y-54394000I-254000J0D01*
G01*
X99425000Y-54394000D01*
G75*
G02*
X99171000Y-54140000I0J254000D01*
G01*
G37*
G36*
G01*
X77121000Y-56680000D02*
X77121000Y-55080000D01*
G75*
G02*
X77375000Y-54826000I254000J0D01*
G01*
X78375000Y-54826000D01*
G75*
G02*
X78629000Y-55080000I0J-254000D01*
G01*
X78629000Y-56680000D01*
G75*
G02*
X78375000Y-56934000I-254000J0D01*
G01*
X77375000Y-56934000D01*
G75*
G02*
X77121000Y-56680000I0J254000D01*
G01*
G37*
G36*
G01*
X80121000Y-56680000D02*
X80121000Y-55080000D01*
G75*
G02*
X80375000Y-54826000I254000J0D01*
G01*
X81375000Y-54826000D01*
G75*
G02*
X81629000Y-55080000I0J-254000D01*
G01*
X81629000Y-56680000D01*
G75*
G02*
X81375000Y-56934000I-254000J0D01*
G01*
X80375000Y-56934000D01*
G75*
G02*
X80121000Y-56680000I0J254000D01*
G01*
G37*
G36*
G01*
X83471000Y-56680000D02*
X83471000Y-55080000D01*
G75*
G02*
X83725000Y-54826000I254000J0D01*
G01*
X84725000Y-54826000D01*
G75*
G02*
X84979000Y-55080000I0J-254000D01*
G01*
X84979000Y-56680000D01*
G75*
G02*
X84725000Y-56934000I-254000J0D01*
G01*
X83725000Y-56934000D01*
G75*
G02*
X83471000Y-56680000I0J254000D01*
G01*
G37*
G36*
G01*
X86471000Y-56680000D02*
X86471000Y-55080000D01*
G75*
G02*
X86725000Y-54826000I254000J0D01*
G01*
X87725000Y-54826000D01*
G75*
G02*
X87979000Y-55080000I0J-254000D01*
G01*
X87979000Y-56680000D01*
G75*
G02*
X87725000Y-56934000I-254000J0D01*
G01*
X86725000Y-56934000D01*
G75*
G02*
X86471000Y-56680000I0J254000D01*
G01*
G37*
G36*
G01*
X89821000Y-56680000D02*
X89821000Y-55080000D01*
G75*
G02*
X90075000Y-54826000I254000J0D01*
G01*
X91075000Y-54826000D01*
G75*
G02*
X91329000Y-55080000I0J-254000D01*
G01*
X91329000Y-56680000D01*
G75*
G02*
X91075000Y-56934000I-254000J0D01*
G01*
X90075000Y-56934000D01*
G75*
G02*
X89821000Y-56680000I0J254000D01*
G01*
G37*
G36*
G01*
X92821000Y-56680000D02*
X92821000Y-55080000D01*
G75*
G02*
X93075000Y-54826000I254000J0D01*
G01*
X94075000Y-54826000D01*
G75*
G02*
X94329000Y-55080000I0J-254000D01*
G01*
X94329000Y-56680000D01*
G75*
G02*
X94075000Y-56934000I-254000J0D01*
G01*
X93075000Y-56934000D01*
G75*
G02*
X92821000Y-56680000I0J254000D01*
G01*
G37*
G36*
G01*
X96171000Y-56680000D02*
X96171000Y-55080000D01*
G75*
G02*
X96425000Y-54826000I254000J0D01*
G01*
X97425000Y-54826000D01*
G75*
G02*
X97679000Y-55080000I0J-254000D01*
G01*
X97679000Y-56680000D01*
G75*
G02*
X97425000Y-56934000I-254000J0D01*
G01*
X96425000Y-56934000D01*
G75*
G02*
X96171000Y-56680000I0J254000D01*
G01*
G37*
G36*
G01*
X99171000Y-56680000D02*
X99171000Y-55080000D01*
G75*
G02*
X99425000Y-54826000I254000J0D01*
G01*
X100425000Y-54826000D01*
G75*
G02*
X100679000Y-55080000I0J-254000D01*
G01*
X100679000Y-56680000D01*
G75*
G02*
X100425000Y-56934000I-254000J0D01*
G01*
X99425000Y-56934000D01*
G75*
G02*
X99171000Y-56680000I0J254000D01*
G01*
G37*
G36*
G01*
X77121000Y-59220000D02*
X77121000Y-57620000D01*
G75*
G02*
X77375000Y-57366000I254000J0D01*
G01*
X78375000Y-57366000D01*
G75*
G02*
X78629000Y-57620000I0J-254000D01*
G01*
X78629000Y-59220000D01*
G75*
G02*
X78375000Y-59474000I-254000J0D01*
G01*
X77375000Y-59474000D01*
G75*
G02*
X77121000Y-59220000I0J254000D01*
G01*
G37*
G36*
G01*
X80121000Y-59220000D02*
X80121000Y-57620000D01*
G75*
G02*
X80375000Y-57366000I254000J0D01*
G01*
X81375000Y-57366000D01*
G75*
G02*
X81629000Y-57620000I0J-254000D01*
G01*
X81629000Y-59220000D01*
G75*
G02*
X81375000Y-59474000I-254000J0D01*
G01*
X80375000Y-59474000D01*
G75*
G02*
X80121000Y-59220000I0J254000D01*
G01*
G37*
G36*
G01*
X83471000Y-59220000D02*
X83471000Y-57620000D01*
G75*
G02*
X83725000Y-57366000I254000J0D01*
G01*
X84725000Y-57366000D01*
G75*
G02*
X84979000Y-57620000I0J-254000D01*
G01*
X84979000Y-59220000D01*
G75*
G02*
X84725000Y-59474000I-254000J0D01*
G01*
X83725000Y-59474000D01*
G75*
G02*
X83471000Y-59220000I0J254000D01*
G01*
G37*
G36*
G01*
X86471000Y-59220000D02*
X86471000Y-57620000D01*
G75*
G02*
X86725000Y-57366000I254000J0D01*
G01*
X87725000Y-57366000D01*
G75*
G02*
X87979000Y-57620000I0J-254000D01*
G01*
X87979000Y-59220000D01*
G75*
G02*
X87725000Y-59474000I-254000J0D01*
G01*
X86725000Y-59474000D01*
G75*
G02*
X86471000Y-59220000I0J254000D01*
G01*
G37*
G36*
G01*
X89821000Y-59220000D02*
X89821000Y-57620000D01*
G75*
G02*
X90075000Y-57366000I254000J0D01*
G01*
X91075000Y-57366000D01*
G75*
G02*
X91329000Y-57620000I0J-254000D01*
G01*
X91329000Y-59220000D01*
G75*
G02*
X91075000Y-59474000I-254000J0D01*
G01*
X90075000Y-59474000D01*
G75*
G02*
X89821000Y-59220000I0J254000D01*
G01*
G37*
G36*
G01*
X92821000Y-59220000D02*
X92821000Y-57620000D01*
G75*
G02*
X93075000Y-57366000I254000J0D01*
G01*
X94075000Y-57366000D01*
G75*
G02*
X94329000Y-57620000I0J-254000D01*
G01*
X94329000Y-59220000D01*
G75*
G02*
X94075000Y-59474000I-254000J0D01*
G01*
X93075000Y-59474000D01*
G75*
G02*
X92821000Y-59220000I0J254000D01*
G01*
G37*
G36*
G01*
X96171000Y-59220000D02*
X96171000Y-57620000D01*
G75*
G02*
X96425000Y-57366000I254000J0D01*
G01*
X97425000Y-57366000D01*
G75*
G02*
X97679000Y-57620000I0J-254000D01*
G01*
X97679000Y-59220000D01*
G75*
G02*
X97425000Y-59474000I-254000J0D01*
G01*
X96425000Y-59474000D01*
G75*
G02*
X96171000Y-59220000I0J254000D01*
G01*
G37*
G36*
G01*
X99171000Y-59220000D02*
X99171000Y-57620000D01*
G75*
G02*
X99425000Y-57366000I254000J0D01*
G01*
X100425000Y-57366000D01*
G75*
G02*
X100679000Y-57620000I0J-254000D01*
G01*
X100679000Y-59220000D01*
G75*
G02*
X100425000Y-59474000I-254000J0D01*
G01*
X99425000Y-59474000D01*
G75*
G02*
X99171000Y-59220000I0J254000D01*
G01*
G37*
G36*
G01*
X77121000Y-61760000D02*
X77121000Y-60160000D01*
G75*
G02*
X77375000Y-59906000I254000J0D01*
G01*
X78375000Y-59906000D01*
G75*
G02*
X78629000Y-60160000I0J-254000D01*
G01*
X78629000Y-61760000D01*
G75*
G02*
X78375000Y-62014000I-254000J0D01*
G01*
X77375000Y-62014000D01*
G75*
G02*
X77121000Y-61760000I0J254000D01*
G01*
G37*
G36*
G01*
X80121000Y-61760000D02*
X80121000Y-60160000D01*
G75*
G02*
X80375000Y-59906000I254000J0D01*
G01*
X81375000Y-59906000D01*
G75*
G02*
X81629000Y-60160000I0J-254000D01*
G01*
X81629000Y-61760000D01*
G75*
G02*
X81375000Y-62014000I-254000J0D01*
G01*
X80375000Y-62014000D01*
G75*
G02*
X80121000Y-61760000I0J254000D01*
G01*
G37*
G36*
G01*
X83471000Y-61760000D02*
X83471000Y-60160000D01*
G75*
G02*
X83725000Y-59906000I254000J0D01*
G01*
X84725000Y-59906000D01*
G75*
G02*
X84979000Y-60160000I0J-254000D01*
G01*
X84979000Y-61760000D01*
G75*
G02*
X84725000Y-62014000I-254000J0D01*
G01*
X83725000Y-62014000D01*
G75*
G02*
X83471000Y-61760000I0J254000D01*
G01*
G37*
G36*
G01*
X86471000Y-61760000D02*
X86471000Y-60160000D01*
G75*
G02*
X86725000Y-59906000I254000J0D01*
G01*
X87725000Y-59906000D01*
G75*
G02*
X87979000Y-60160000I0J-254000D01*
G01*
X87979000Y-61760000D01*
G75*
G02*
X87725000Y-62014000I-254000J0D01*
G01*
X86725000Y-62014000D01*
G75*
G02*
X86471000Y-61760000I0J254000D01*
G01*
G37*
G36*
G01*
X89821000Y-61760000D02*
X89821000Y-60160000D01*
G75*
G02*
X90075000Y-59906000I254000J0D01*
G01*
X91075000Y-59906000D01*
G75*
G02*
X91329000Y-60160000I0J-254000D01*
G01*
X91329000Y-61760000D01*
G75*
G02*
X91075000Y-62014000I-254000J0D01*
G01*
X90075000Y-62014000D01*
G75*
G02*
X89821000Y-61760000I0J254000D01*
G01*
G37*
G36*
G01*
X92821000Y-61760000D02*
X92821000Y-60160000D01*
G75*
G02*
X93075000Y-59906000I254000J0D01*
G01*
X94075000Y-59906000D01*
G75*
G02*
X94329000Y-60160000I0J-254000D01*
G01*
X94329000Y-61760000D01*
G75*
G02*
X94075000Y-62014000I-254000J0D01*
G01*
X93075000Y-62014000D01*
G75*
G02*
X92821000Y-61760000I0J254000D01*
G01*
G37*
G36*
G01*
X96171000Y-61760000D02*
X96171000Y-60160000D01*
G75*
G02*
X96425000Y-59906000I254000J0D01*
G01*
X97425000Y-59906000D01*
G75*
G02*
X97679000Y-60160000I0J-254000D01*
G01*
X97679000Y-61760000D01*
G75*
G02*
X97425000Y-62014000I-254000J0D01*
G01*
X96425000Y-62014000D01*
G75*
G02*
X96171000Y-61760000I0J254000D01*
G01*
G37*
G36*
G01*
X99171000Y-61760000D02*
X99171000Y-60160000D01*
G75*
G02*
X99425000Y-59906000I254000J0D01*
G01*
X100425000Y-59906000D01*
G75*
G02*
X100679000Y-60160000I0J-254000D01*
G01*
X100679000Y-61760000D01*
G75*
G02*
X100425000Y-62014000I-254000J0D01*
G01*
X99425000Y-62014000D01*
G75*
G02*
X99171000Y-61760000I0J254000D01*
G01*
G37*
G36*
G01*
X77121000Y-64300000D02*
X77121000Y-62700000D01*
G75*
G02*
X77375000Y-62446000I254000J0D01*
G01*
X78375000Y-62446000D01*
G75*
G02*
X78629000Y-62700000I0J-254000D01*
G01*
X78629000Y-64300000D01*
G75*
G02*
X78375000Y-64554000I-254000J0D01*
G01*
X77375000Y-64554000D01*
G75*
G02*
X77121000Y-64300000I0J254000D01*
G01*
G37*
G36*
G01*
X80121000Y-64300000D02*
X80121000Y-62700000D01*
G75*
G02*
X80375000Y-62446000I254000J0D01*
G01*
X81375000Y-62446000D01*
G75*
G02*
X81629000Y-62700000I0J-254000D01*
G01*
X81629000Y-64300000D01*
G75*
G02*
X81375000Y-64554000I-254000J0D01*
G01*
X80375000Y-64554000D01*
G75*
G02*
X80121000Y-64300000I0J254000D01*
G01*
G37*
G36*
G01*
X83471000Y-64300000D02*
X83471000Y-62700000D01*
G75*
G02*
X83725000Y-62446000I254000J0D01*
G01*
X84725000Y-62446000D01*
G75*
G02*
X84979000Y-62700000I0J-254000D01*
G01*
X84979000Y-64300000D01*
G75*
G02*
X84725000Y-64554000I-254000J0D01*
G01*
X83725000Y-64554000D01*
G75*
G02*
X83471000Y-64300000I0J254000D01*
G01*
G37*
G36*
G01*
X86471000Y-64300000D02*
X86471000Y-62700000D01*
G75*
G02*
X86725000Y-62446000I254000J0D01*
G01*
X87725000Y-62446000D01*
G75*
G02*
X87979000Y-62700000I0J-254000D01*
G01*
X87979000Y-64300000D01*
G75*
G02*
X87725000Y-64554000I-254000J0D01*
G01*
X86725000Y-64554000D01*
G75*
G02*
X86471000Y-64300000I0J254000D01*
G01*
G37*
G36*
G01*
X89821000Y-64300000D02*
X89821000Y-62700000D01*
G75*
G02*
X90075000Y-62446000I254000J0D01*
G01*
X91075000Y-62446000D01*
G75*
G02*
X91329000Y-62700000I0J-254000D01*
G01*
X91329000Y-64300000D01*
G75*
G02*
X91075000Y-64554000I-254000J0D01*
G01*
X90075000Y-64554000D01*
G75*
G02*
X89821000Y-64300000I0J254000D01*
G01*
G37*
G36*
G01*
X92821000Y-64300000D02*
X92821000Y-62700000D01*
G75*
G02*
X93075000Y-62446000I254000J0D01*
G01*
X94075000Y-62446000D01*
G75*
G02*
X94329000Y-62700000I0J-254000D01*
G01*
X94329000Y-64300000D01*
G75*
G02*
X94075000Y-64554000I-254000J0D01*
G01*
X93075000Y-64554000D01*
G75*
G02*
X92821000Y-64300000I0J254000D01*
G01*
G37*
G36*
G01*
X96171000Y-64300000D02*
X96171000Y-62700000D01*
G75*
G02*
X96425000Y-62446000I254000J0D01*
G01*
X97425000Y-62446000D01*
G75*
G02*
X97679000Y-62700000I0J-254000D01*
G01*
X97679000Y-64300000D01*
G75*
G02*
X97425000Y-64554000I-254000J0D01*
G01*
X96425000Y-64554000D01*
G75*
G02*
X96171000Y-64300000I0J254000D01*
G01*
G37*
G36*
G01*
X99171000Y-64300000D02*
X99171000Y-62700000D01*
G75*
G02*
X99425000Y-62446000I254000J0D01*
G01*
X100425000Y-62446000D01*
G75*
G02*
X100679000Y-62700000I0J-254000D01*
G01*
X100679000Y-64300000D01*
G75*
G02*
X100425000Y-64554000I-254000J0D01*
G01*
X99425000Y-64554000D01*
G75*
G02*
X99171000Y-64300000I0J254000D01*
G01*
G37*
G36*
G01*
X77121000Y-66840000D02*
X77121000Y-65240000D01*
G75*
G02*
X77375000Y-64986000I254000J0D01*
G01*
X78375000Y-64986000D01*
G75*
G02*
X78629000Y-65240000I0J-254000D01*
G01*
X78629000Y-66840000D01*
G75*
G02*
X78375000Y-67094000I-254000J0D01*
G01*
X77375000Y-67094000D01*
G75*
G02*
X77121000Y-66840000I0J254000D01*
G01*
G37*
G36*
G01*
X80121000Y-66840000D02*
X80121000Y-65240000D01*
G75*
G02*
X80375000Y-64986000I254000J0D01*
G01*
X81375000Y-64986000D01*
G75*
G02*
X81629000Y-65240000I0J-254000D01*
G01*
X81629000Y-66840000D01*
G75*
G02*
X81375000Y-67094000I-254000J0D01*
G01*
X80375000Y-67094000D01*
G75*
G02*
X80121000Y-66840000I0J254000D01*
G01*
G37*
G36*
G01*
X83471000Y-66840000D02*
X83471000Y-65240000D01*
G75*
G02*
X83725000Y-64986000I254000J0D01*
G01*
X84725000Y-64986000D01*
G75*
G02*
X84979000Y-65240000I0J-254000D01*
G01*
X84979000Y-66840000D01*
G75*
G02*
X84725000Y-67094000I-254000J0D01*
G01*
X83725000Y-67094000D01*
G75*
G02*
X83471000Y-66840000I0J254000D01*
G01*
G37*
G36*
G01*
X86471000Y-66840000D02*
X86471000Y-65240000D01*
G75*
G02*
X86725000Y-64986000I254000J0D01*
G01*
X87725000Y-64986000D01*
G75*
G02*
X87979000Y-65240000I0J-254000D01*
G01*
X87979000Y-66840000D01*
G75*
G02*
X87725000Y-67094000I-254000J0D01*
G01*
X86725000Y-67094000D01*
G75*
G02*
X86471000Y-66840000I0J254000D01*
G01*
G37*
G36*
G01*
X89821000Y-66840000D02*
X89821000Y-65240000D01*
G75*
G02*
X90075000Y-64986000I254000J0D01*
G01*
X91075000Y-64986000D01*
G75*
G02*
X91329000Y-65240000I0J-254000D01*
G01*
X91329000Y-66840000D01*
G75*
G02*
X91075000Y-67094000I-254000J0D01*
G01*
X90075000Y-67094000D01*
G75*
G02*
X89821000Y-66840000I0J254000D01*
G01*
G37*
G36*
G01*
X92821000Y-66840000D02*
X92821000Y-65240000D01*
G75*
G02*
X93075000Y-64986000I254000J0D01*
G01*
X94075000Y-64986000D01*
G75*
G02*
X94329000Y-65240000I0J-254000D01*
G01*
X94329000Y-66840000D01*
G75*
G02*
X94075000Y-67094000I-254000J0D01*
G01*
X93075000Y-67094000D01*
G75*
G02*
X92821000Y-66840000I0J254000D01*
G01*
G37*
G36*
G01*
X96171000Y-66840000D02*
X96171000Y-65240000D01*
G75*
G02*
X96425000Y-64986000I254000J0D01*
G01*
X97425000Y-64986000D01*
G75*
G02*
X97679000Y-65240000I0J-254000D01*
G01*
X97679000Y-66840000D01*
G75*
G02*
X97425000Y-67094000I-254000J0D01*
G01*
X96425000Y-67094000D01*
G75*
G02*
X96171000Y-66840000I0J254000D01*
G01*
G37*
G36*
G01*
X99171000Y-66840000D02*
X99171000Y-65240000D01*
G75*
G02*
X99425000Y-64986000I254000J0D01*
G01*
X100425000Y-64986000D01*
G75*
G02*
X100679000Y-65240000I0J-254000D01*
G01*
X100679000Y-66840000D01*
G75*
G02*
X100425000Y-67094000I-254000J0D01*
G01*
X99425000Y-67094000D01*
G75*
G02*
X99171000Y-66840000I0J254000D01*
G01*
G37*
G36*
G01*
X77121000Y-69380000D02*
X77121000Y-67780000D01*
G75*
G02*
X77375000Y-67526000I254000J0D01*
G01*
X78375000Y-67526000D01*
G75*
G02*
X78629000Y-67780000I0J-254000D01*
G01*
X78629000Y-69380000D01*
G75*
G02*
X78375000Y-69634000I-254000J0D01*
G01*
X77375000Y-69634000D01*
G75*
G02*
X77121000Y-69380000I0J254000D01*
G01*
G37*
G36*
G01*
X80121000Y-69380000D02*
X80121000Y-67780000D01*
G75*
G02*
X80375000Y-67526000I254000J0D01*
G01*
X81375000Y-67526000D01*
G75*
G02*
X81629000Y-67780000I0J-254000D01*
G01*
X81629000Y-69380000D01*
G75*
G02*
X81375000Y-69634000I-254000J0D01*
G01*
X80375000Y-69634000D01*
G75*
G02*
X80121000Y-69380000I0J254000D01*
G01*
G37*
G36*
G01*
X83471000Y-69380000D02*
X83471000Y-67780000D01*
G75*
G02*
X83725000Y-67526000I254000J0D01*
G01*
X84725000Y-67526000D01*
G75*
G02*
X84979000Y-67780000I0J-254000D01*
G01*
X84979000Y-69380000D01*
G75*
G02*
X84725000Y-69634000I-254000J0D01*
G01*
X83725000Y-69634000D01*
G75*
G02*
X83471000Y-69380000I0J254000D01*
G01*
G37*
G36*
G01*
X86471000Y-69380000D02*
X86471000Y-67780000D01*
G75*
G02*
X86725000Y-67526000I254000J0D01*
G01*
X87725000Y-67526000D01*
G75*
G02*
X87979000Y-67780000I0J-254000D01*
G01*
X87979000Y-69380000D01*
G75*
G02*
X87725000Y-69634000I-254000J0D01*
G01*
X86725000Y-69634000D01*
G75*
G02*
X86471000Y-69380000I0J254000D01*
G01*
G37*
G36*
G01*
X89821000Y-69380000D02*
X89821000Y-67780000D01*
G75*
G02*
X90075000Y-67526000I254000J0D01*
G01*
X91075000Y-67526000D01*
G75*
G02*
X91329000Y-67780000I0J-254000D01*
G01*
X91329000Y-69380000D01*
G75*
G02*
X91075000Y-69634000I-254000J0D01*
G01*
X90075000Y-69634000D01*
G75*
G02*
X89821000Y-69380000I0J254000D01*
G01*
G37*
G36*
G01*
X92821000Y-69380000D02*
X92821000Y-67780000D01*
G75*
G02*
X93075000Y-67526000I254000J0D01*
G01*
X94075000Y-67526000D01*
G75*
G02*
X94329000Y-67780000I0J-254000D01*
G01*
X94329000Y-69380000D01*
G75*
G02*
X94075000Y-69634000I-254000J0D01*
G01*
X93075000Y-69634000D01*
G75*
G02*
X92821000Y-69380000I0J254000D01*
G01*
G37*
G36*
G01*
X96171000Y-69380000D02*
X96171000Y-67780000D01*
G75*
G02*
X96425000Y-67526000I254000J0D01*
G01*
X97425000Y-67526000D01*
G75*
G02*
X97679000Y-67780000I0J-254000D01*
G01*
X97679000Y-69380000D01*
G75*
G02*
X97425000Y-69634000I-254000J0D01*
G01*
X96425000Y-69634000D01*
G75*
G02*
X96171000Y-69380000I0J254000D01*
G01*
G37*
G36*
G01*
X99171000Y-69380000D02*
X99171000Y-67780000D01*
G75*
G02*
X99425000Y-67526000I254000J0D01*
G01*
X100425000Y-67526000D01*
G75*
G02*
X100679000Y-67780000I0J-254000D01*
G01*
X100679000Y-69380000D01*
G75*
G02*
X100425000Y-69634000I-254000J0D01*
G01*
X99425000Y-69634000D01*
G75*
G02*
X99171000Y-69380000I0J254000D01*
G01*
G37*
G36*
G01*
X77121000Y-71920000D02*
X77121000Y-70320000D01*
G75*
G02*
X77375000Y-70066000I254000J0D01*
G01*
X78375000Y-70066000D01*
G75*
G02*
X78629000Y-70320000I0J-254000D01*
G01*
X78629000Y-71920000D01*
G75*
G02*
X78375000Y-72174000I-254000J0D01*
G01*
X77375000Y-72174000D01*
G75*
G02*
X77121000Y-71920000I0J254000D01*
G01*
G37*
G36*
G01*
X80121000Y-71920000D02*
X80121000Y-70320000D01*
G75*
G02*
X80375000Y-70066000I254000J0D01*
G01*
X81375000Y-70066000D01*
G75*
G02*
X81629000Y-70320000I0J-254000D01*
G01*
X81629000Y-71920000D01*
G75*
G02*
X81375000Y-72174000I-254000J0D01*
G01*
X80375000Y-72174000D01*
G75*
G02*
X80121000Y-71920000I0J254000D01*
G01*
G37*
G36*
G01*
X83471000Y-71920000D02*
X83471000Y-70320000D01*
G75*
G02*
X83725000Y-70066000I254000J0D01*
G01*
X84725000Y-70066000D01*
G75*
G02*
X84979000Y-70320000I0J-254000D01*
G01*
X84979000Y-71920000D01*
G75*
G02*
X84725000Y-72174000I-254000J0D01*
G01*
X83725000Y-72174000D01*
G75*
G02*
X83471000Y-71920000I0J254000D01*
G01*
G37*
G36*
G01*
X86471000Y-71920000D02*
X86471000Y-70320000D01*
G75*
G02*
X86725000Y-70066000I254000J0D01*
G01*
X87725000Y-70066000D01*
G75*
G02*
X87979000Y-70320000I0J-254000D01*
G01*
X87979000Y-71920000D01*
G75*
G02*
X87725000Y-72174000I-254000J0D01*
G01*
X86725000Y-72174000D01*
G75*
G02*
X86471000Y-71920000I0J254000D01*
G01*
G37*
G36*
G01*
X89821000Y-71920000D02*
X89821000Y-70320000D01*
G75*
G02*
X90075000Y-70066000I254000J0D01*
G01*
X91075000Y-70066000D01*
G75*
G02*
X91329000Y-70320000I0J-254000D01*
G01*
X91329000Y-71920000D01*
G75*
G02*
X91075000Y-72174000I-254000J0D01*
G01*
X90075000Y-72174000D01*
G75*
G02*
X89821000Y-71920000I0J254000D01*
G01*
G37*
G36*
G01*
X92821000Y-71920000D02*
X92821000Y-70320000D01*
G75*
G02*
X93075000Y-70066000I254000J0D01*
G01*
X94075000Y-70066000D01*
G75*
G02*
X94329000Y-70320000I0J-254000D01*
G01*
X94329000Y-71920000D01*
G75*
G02*
X94075000Y-72174000I-254000J0D01*
G01*
X93075000Y-72174000D01*
G75*
G02*
X92821000Y-71920000I0J254000D01*
G01*
G37*
G36*
G01*
X96171000Y-71920000D02*
X96171000Y-70320000D01*
G75*
G02*
X96425000Y-70066000I254000J0D01*
G01*
X97425000Y-70066000D01*
G75*
G02*
X97679000Y-70320000I0J-254000D01*
G01*
X97679000Y-71920000D01*
G75*
G02*
X97425000Y-72174000I-254000J0D01*
G01*
X96425000Y-72174000D01*
G75*
G02*
X96171000Y-71920000I0J254000D01*
G01*
G37*
G36*
G01*
X99171000Y-71920000D02*
X99171000Y-70320000D01*
G75*
G02*
X99425000Y-70066000I254000J0D01*
G01*
X100425000Y-70066000D01*
G75*
G02*
X100679000Y-70320000I0J-254000D01*
G01*
X100679000Y-71920000D01*
G75*
G02*
X100425000Y-72174000I-254000J0D01*
G01*
X99425000Y-72174000D01*
G75*
G02*
X99171000Y-71920000I0J254000D01*
G01*
G37*
G36*
G01*
X77121000Y-74460000D02*
X77121000Y-72860000D01*
G75*
G02*
X77375000Y-72606000I254000J0D01*
G01*
X78375000Y-72606000D01*
G75*
G02*
X78629000Y-72860000I0J-254000D01*
G01*
X78629000Y-74460000D01*
G75*
G02*
X78375000Y-74714000I-254000J0D01*
G01*
X77375000Y-74714000D01*
G75*
G02*
X77121000Y-74460000I0J254000D01*
G01*
G37*
G36*
G01*
X80121000Y-74460000D02*
X80121000Y-72860000D01*
G75*
G02*
X80375000Y-72606000I254000J0D01*
G01*
X81375000Y-72606000D01*
G75*
G02*
X81629000Y-72860000I0J-254000D01*
G01*
X81629000Y-74460000D01*
G75*
G02*
X81375000Y-74714000I-254000J0D01*
G01*
X80375000Y-74714000D01*
G75*
G02*
X80121000Y-74460000I0J254000D01*
G01*
G37*
G36*
G01*
X83471000Y-74460000D02*
X83471000Y-72860000D01*
G75*
G02*
X83725000Y-72606000I254000J0D01*
G01*
X84725000Y-72606000D01*
G75*
G02*
X84979000Y-72860000I0J-254000D01*
G01*
X84979000Y-74460000D01*
G75*
G02*
X84725000Y-74714000I-254000J0D01*
G01*
X83725000Y-74714000D01*
G75*
G02*
X83471000Y-74460000I0J254000D01*
G01*
G37*
G36*
G01*
X86471000Y-74460000D02*
X86471000Y-72860000D01*
G75*
G02*
X86725000Y-72606000I254000J0D01*
G01*
X87725000Y-72606000D01*
G75*
G02*
X87979000Y-72860000I0J-254000D01*
G01*
X87979000Y-74460000D01*
G75*
G02*
X87725000Y-74714000I-254000J0D01*
G01*
X86725000Y-74714000D01*
G75*
G02*
X86471000Y-74460000I0J254000D01*
G01*
G37*
G36*
G01*
X89821000Y-74460000D02*
X89821000Y-72860000D01*
G75*
G02*
X90075000Y-72606000I254000J0D01*
G01*
X91075000Y-72606000D01*
G75*
G02*
X91329000Y-72860000I0J-254000D01*
G01*
X91329000Y-74460000D01*
G75*
G02*
X91075000Y-74714000I-254000J0D01*
G01*
X90075000Y-74714000D01*
G75*
G02*
X89821000Y-74460000I0J254000D01*
G01*
G37*
G36*
G01*
X92821000Y-74460000D02*
X92821000Y-72860000D01*
G75*
G02*
X93075000Y-72606000I254000J0D01*
G01*
X94075000Y-72606000D01*
G75*
G02*
X94329000Y-72860000I0J-254000D01*
G01*
X94329000Y-74460000D01*
G75*
G02*
X94075000Y-74714000I-254000J0D01*
G01*
X93075000Y-74714000D01*
G75*
G02*
X92821000Y-74460000I0J254000D01*
G01*
G37*
G36*
G01*
X96171000Y-74460000D02*
X96171000Y-72860000D01*
G75*
G02*
X96425000Y-72606000I254000J0D01*
G01*
X97425000Y-72606000D01*
G75*
G02*
X97679000Y-72860000I0J-254000D01*
G01*
X97679000Y-74460000D01*
G75*
G02*
X97425000Y-74714000I-254000J0D01*
G01*
X96425000Y-74714000D01*
G75*
G02*
X96171000Y-74460000I0J254000D01*
G01*
G37*
G36*
G01*
X99171000Y-74460000D02*
X99171000Y-72860000D01*
G75*
G02*
X99425000Y-72606000I254000J0D01*
G01*
X100425000Y-72606000D01*
G75*
G02*
X100679000Y-72860000I0J-254000D01*
G01*
X100679000Y-74460000D01*
G75*
G02*
X100425000Y-74714000I-254000J0D01*
G01*
X99425000Y-74714000D01*
G75*
G02*
X99171000Y-74460000I0J254000D01*
G01*
G37*
G36*
G01*
X77121000Y-77000000D02*
X77121000Y-75400000D01*
G75*
G02*
X77375000Y-75146000I254000J0D01*
G01*
X78375000Y-75146000D01*
G75*
G02*
X78629000Y-75400000I0J-254000D01*
G01*
X78629000Y-77000000D01*
G75*
G02*
X78375000Y-77254000I-254000J0D01*
G01*
X77375000Y-77254000D01*
G75*
G02*
X77121000Y-77000000I0J254000D01*
G01*
G37*
G36*
G01*
X80121000Y-77000000D02*
X80121000Y-75400000D01*
G75*
G02*
X80375000Y-75146000I254000J0D01*
G01*
X81375000Y-75146000D01*
G75*
G02*
X81629000Y-75400000I0J-254000D01*
G01*
X81629000Y-77000000D01*
G75*
G02*
X81375000Y-77254000I-254000J0D01*
G01*
X80375000Y-77254000D01*
G75*
G02*
X80121000Y-77000000I0J254000D01*
G01*
G37*
G36*
G01*
X83471000Y-77000000D02*
X83471000Y-75400000D01*
G75*
G02*
X83725000Y-75146000I254000J0D01*
G01*
X84725000Y-75146000D01*
G75*
G02*
X84979000Y-75400000I0J-254000D01*
G01*
X84979000Y-77000000D01*
G75*
G02*
X84725000Y-77254000I-254000J0D01*
G01*
X83725000Y-77254000D01*
G75*
G02*
X83471000Y-77000000I0J254000D01*
G01*
G37*
G36*
G01*
X86471000Y-77000000D02*
X86471000Y-75400000D01*
G75*
G02*
X86725000Y-75146000I254000J0D01*
G01*
X87725000Y-75146000D01*
G75*
G02*
X87979000Y-75400000I0J-254000D01*
G01*
X87979000Y-77000000D01*
G75*
G02*
X87725000Y-77254000I-254000J0D01*
G01*
X86725000Y-77254000D01*
G75*
G02*
X86471000Y-77000000I0J254000D01*
G01*
G37*
G36*
G01*
X89821000Y-77000000D02*
X89821000Y-75400000D01*
G75*
G02*
X90075000Y-75146000I254000J0D01*
G01*
X91075000Y-75146000D01*
G75*
G02*
X91329000Y-75400000I0J-254000D01*
G01*
X91329000Y-77000000D01*
G75*
G02*
X91075000Y-77254000I-254000J0D01*
G01*
X90075000Y-77254000D01*
G75*
G02*
X89821000Y-77000000I0J254000D01*
G01*
G37*
G36*
G01*
X92821000Y-77000000D02*
X92821000Y-75400000D01*
G75*
G02*
X93075000Y-75146000I254000J0D01*
G01*
X94075000Y-75146000D01*
G75*
G02*
X94329000Y-75400000I0J-254000D01*
G01*
X94329000Y-77000000D01*
G75*
G02*
X94075000Y-77254000I-254000J0D01*
G01*
X93075000Y-77254000D01*
G75*
G02*
X92821000Y-77000000I0J254000D01*
G01*
G37*
G36*
G01*
X96171000Y-77000000D02*
X96171000Y-75400000D01*
G75*
G02*
X96425000Y-75146000I254000J0D01*
G01*
X97425000Y-75146000D01*
G75*
G02*
X97679000Y-75400000I0J-254000D01*
G01*
X97679000Y-77000000D01*
G75*
G02*
X97425000Y-77254000I-254000J0D01*
G01*
X96425000Y-77254000D01*
G75*
G02*
X96171000Y-77000000I0J254000D01*
G01*
G37*
G36*
G01*
X99171000Y-77000000D02*
X99171000Y-75400000D01*
G75*
G02*
X99425000Y-75146000I254000J0D01*
G01*
X100425000Y-75146000D01*
G75*
G02*
X100679000Y-75400000I0J-254000D01*
G01*
X100679000Y-77000000D01*
G75*
G02*
X100425000Y-77254000I-254000J0D01*
G01*
X99425000Y-77254000D01*
G75*
G02*
X99171000Y-77000000I0J254000D01*
G01*
G37*
G36*
G01*
X77121000Y-79540000D02*
X77121000Y-77940000D01*
G75*
G02*
X77375000Y-77686000I254000J0D01*
G01*
X78375000Y-77686000D01*
G75*
G02*
X78629000Y-77940000I0J-254000D01*
G01*
X78629000Y-79540000D01*
G75*
G02*
X78375000Y-79794000I-254000J0D01*
G01*
X77375000Y-79794000D01*
G75*
G02*
X77121000Y-79540000I0J254000D01*
G01*
G37*
G36*
G01*
X80121000Y-79540000D02*
X80121000Y-77940000D01*
G75*
G02*
X80375000Y-77686000I254000J0D01*
G01*
X81375000Y-77686000D01*
G75*
G02*
X81629000Y-77940000I0J-254000D01*
G01*
X81629000Y-79540000D01*
G75*
G02*
X81375000Y-79794000I-254000J0D01*
G01*
X80375000Y-79794000D01*
G75*
G02*
X80121000Y-79540000I0J254000D01*
G01*
G37*
G36*
G01*
X83471000Y-79540000D02*
X83471000Y-77940000D01*
G75*
G02*
X83725000Y-77686000I254000J0D01*
G01*
X84725000Y-77686000D01*
G75*
G02*
X84979000Y-77940000I0J-254000D01*
G01*
X84979000Y-79540000D01*
G75*
G02*
X84725000Y-79794000I-254000J0D01*
G01*
X83725000Y-79794000D01*
G75*
G02*
X83471000Y-79540000I0J254000D01*
G01*
G37*
G36*
G01*
X86471000Y-79540000D02*
X86471000Y-77940000D01*
G75*
G02*
X86725000Y-77686000I254000J0D01*
G01*
X87725000Y-77686000D01*
G75*
G02*
X87979000Y-77940000I0J-254000D01*
G01*
X87979000Y-79540000D01*
G75*
G02*
X87725000Y-79794000I-254000J0D01*
G01*
X86725000Y-79794000D01*
G75*
G02*
X86471000Y-79540000I0J254000D01*
G01*
G37*
G36*
G01*
X89821000Y-79540000D02*
X89821000Y-77940000D01*
G75*
G02*
X90075000Y-77686000I254000J0D01*
G01*
X91075000Y-77686000D01*
G75*
G02*
X91329000Y-77940000I0J-254000D01*
G01*
X91329000Y-79540000D01*
G75*
G02*
X91075000Y-79794000I-254000J0D01*
G01*
X90075000Y-79794000D01*
G75*
G02*
X89821000Y-79540000I0J254000D01*
G01*
G37*
G36*
G01*
X92821000Y-79540000D02*
X92821000Y-77940000D01*
G75*
G02*
X93075000Y-77686000I254000J0D01*
G01*
X94075000Y-77686000D01*
G75*
G02*
X94329000Y-77940000I0J-254000D01*
G01*
X94329000Y-79540000D01*
G75*
G02*
X94075000Y-79794000I-254000J0D01*
G01*
X93075000Y-79794000D01*
G75*
G02*
X92821000Y-79540000I0J254000D01*
G01*
G37*
G36*
G01*
X96171000Y-79540000D02*
X96171000Y-77940000D01*
G75*
G02*
X96425000Y-77686000I254000J0D01*
G01*
X97425000Y-77686000D01*
G75*
G02*
X97679000Y-77940000I0J-254000D01*
G01*
X97679000Y-79540000D01*
G75*
G02*
X97425000Y-79794000I-254000J0D01*
G01*
X96425000Y-79794000D01*
G75*
G02*
X96171000Y-79540000I0J254000D01*
G01*
G37*
G36*
G01*
X99171000Y-79540000D02*
X99171000Y-77940000D01*
G75*
G02*
X99425000Y-77686000I254000J0D01*
G01*
X100425000Y-77686000D01*
G75*
G02*
X100679000Y-77940000I0J-254000D01*
G01*
X100679000Y-79540000D01*
G75*
G02*
X100425000Y-79794000I-254000J0D01*
G01*
X99425000Y-79794000D01*
G75*
G02*
X99171000Y-79540000I0J254000D01*
G01*
G37*
G36*
G01*
X51721000Y-79540000D02*
X51721000Y-77940000D01*
G75*
G02*
X51975000Y-77686000I254000J0D01*
G01*
X52975000Y-77686000D01*
G75*
G02*
X53229000Y-77940000I0J-254000D01*
G01*
X53229000Y-79540000D01*
G75*
G02*
X52975000Y-79794000I-254000J0D01*
G01*
X51975000Y-79794000D01*
G75*
G02*
X51721000Y-79540000I0J254000D01*
G01*
G37*
G36*
G01*
X54721000Y-79540000D02*
X54721000Y-77940000D01*
G75*
G02*
X54975000Y-77686000I254000J0D01*
G01*
X55975000Y-77686000D01*
G75*
G02*
X56229000Y-77940000I0J-254000D01*
G01*
X56229000Y-79540000D01*
G75*
G02*
X55975000Y-79794000I-254000J0D01*
G01*
X54975000Y-79794000D01*
G75*
G02*
X54721000Y-79540000I0J254000D01*
G01*
G37*
G36*
G01*
X58071000Y-79540000D02*
X58071000Y-77940000D01*
G75*
G02*
X58325000Y-77686000I254000J0D01*
G01*
X59325000Y-77686000D01*
G75*
G02*
X59579000Y-77940000I0J-254000D01*
G01*
X59579000Y-79540000D01*
G75*
G02*
X59325000Y-79794000I-254000J0D01*
G01*
X58325000Y-79794000D01*
G75*
G02*
X58071000Y-79540000I0J254000D01*
G01*
G37*
G36*
G01*
X61071000Y-79540000D02*
X61071000Y-77940000D01*
G75*
G02*
X61325000Y-77686000I254000J0D01*
G01*
X62325000Y-77686000D01*
G75*
G02*
X62579000Y-77940000I0J-254000D01*
G01*
X62579000Y-79540000D01*
G75*
G02*
X62325000Y-79794000I-254000J0D01*
G01*
X61325000Y-79794000D01*
G75*
G02*
X61071000Y-79540000I0J254000D01*
G01*
G37*
G36*
G01*
X64421000Y-79540000D02*
X64421000Y-77940000D01*
G75*
G02*
X64675000Y-77686000I254000J0D01*
G01*
X65675000Y-77686000D01*
G75*
G02*
X65929000Y-77940000I0J-254000D01*
G01*
X65929000Y-79540000D01*
G75*
G02*
X65675000Y-79794000I-254000J0D01*
G01*
X64675000Y-79794000D01*
G75*
G02*
X64421000Y-79540000I0J254000D01*
G01*
G37*
G36*
G01*
X67421000Y-79540000D02*
X67421000Y-77940000D01*
G75*
G02*
X67675000Y-77686000I254000J0D01*
G01*
X68675000Y-77686000D01*
G75*
G02*
X68929000Y-77940000I0J-254000D01*
G01*
X68929000Y-79540000D01*
G75*
G02*
X68675000Y-79794000I-254000J0D01*
G01*
X67675000Y-79794000D01*
G75*
G02*
X67421000Y-79540000I0J254000D01*
G01*
G37*
G36*
G01*
X70771000Y-79540000D02*
X70771000Y-77940000D01*
G75*
G02*
X71025000Y-77686000I254000J0D01*
G01*
X72025000Y-77686000D01*
G75*
G02*
X72279000Y-77940000I0J-254000D01*
G01*
X72279000Y-79540000D01*
G75*
G02*
X72025000Y-79794000I-254000J0D01*
G01*
X71025000Y-79794000D01*
G75*
G02*
X70771000Y-79540000I0J254000D01*
G01*
G37*
G36*
G01*
X73771000Y-79540000D02*
X73771000Y-77940000D01*
G75*
G02*
X74025000Y-77686000I254000J0D01*
G01*
X75025000Y-77686000D01*
G75*
G02*
X75279000Y-77940000I0J-254000D01*
G01*
X75279000Y-79540000D01*
G75*
G02*
X75025000Y-79794000I-254000J0D01*
G01*
X74025000Y-79794000D01*
G75*
G02*
X73771000Y-79540000I0J254000D01*
G01*
G37*
G36*
G01*
X51721000Y-77000000D02*
X51721000Y-75400000D01*
G75*
G02*
X51975000Y-75146000I254000J0D01*
G01*
X52975000Y-75146000D01*
G75*
G02*
X53229000Y-75400000I0J-254000D01*
G01*
X53229000Y-77000000D01*
G75*
G02*
X52975000Y-77254000I-254000J0D01*
G01*
X51975000Y-77254000D01*
G75*
G02*
X51721000Y-77000000I0J254000D01*
G01*
G37*
G36*
G01*
X54721000Y-77000000D02*
X54721000Y-75400000D01*
G75*
G02*
X54975000Y-75146000I254000J0D01*
G01*
X55975000Y-75146000D01*
G75*
G02*
X56229000Y-75400000I0J-254000D01*
G01*
X56229000Y-77000000D01*
G75*
G02*
X55975000Y-77254000I-254000J0D01*
G01*
X54975000Y-77254000D01*
G75*
G02*
X54721000Y-77000000I0J254000D01*
G01*
G37*
G36*
G01*
X58071000Y-77000000D02*
X58071000Y-75400000D01*
G75*
G02*
X58325000Y-75146000I254000J0D01*
G01*
X59325000Y-75146000D01*
G75*
G02*
X59579000Y-75400000I0J-254000D01*
G01*
X59579000Y-77000000D01*
G75*
G02*
X59325000Y-77254000I-254000J0D01*
G01*
X58325000Y-77254000D01*
G75*
G02*
X58071000Y-77000000I0J254000D01*
G01*
G37*
G36*
G01*
X61071000Y-77000000D02*
X61071000Y-75400000D01*
G75*
G02*
X61325000Y-75146000I254000J0D01*
G01*
X62325000Y-75146000D01*
G75*
G02*
X62579000Y-75400000I0J-254000D01*
G01*
X62579000Y-77000000D01*
G75*
G02*
X62325000Y-77254000I-254000J0D01*
G01*
X61325000Y-77254000D01*
G75*
G02*
X61071000Y-77000000I0J254000D01*
G01*
G37*
G36*
G01*
X64421000Y-77000000D02*
X64421000Y-75400000D01*
G75*
G02*
X64675000Y-75146000I254000J0D01*
G01*
X65675000Y-75146000D01*
G75*
G02*
X65929000Y-75400000I0J-254000D01*
G01*
X65929000Y-77000000D01*
G75*
G02*
X65675000Y-77254000I-254000J0D01*
G01*
X64675000Y-77254000D01*
G75*
G02*
X64421000Y-77000000I0J254000D01*
G01*
G37*
G36*
G01*
X67421000Y-77000000D02*
X67421000Y-75400000D01*
G75*
G02*
X67675000Y-75146000I254000J0D01*
G01*
X68675000Y-75146000D01*
G75*
G02*
X68929000Y-75400000I0J-254000D01*
G01*
X68929000Y-77000000D01*
G75*
G02*
X68675000Y-77254000I-254000J0D01*
G01*
X67675000Y-77254000D01*
G75*
G02*
X67421000Y-77000000I0J254000D01*
G01*
G37*
G36*
G01*
X70771000Y-77000000D02*
X70771000Y-75400000D01*
G75*
G02*
X71025000Y-75146000I254000J0D01*
G01*
X72025000Y-75146000D01*
G75*
G02*
X72279000Y-75400000I0J-254000D01*
G01*
X72279000Y-77000000D01*
G75*
G02*
X72025000Y-77254000I-254000J0D01*
G01*
X71025000Y-77254000D01*
G75*
G02*
X70771000Y-77000000I0J254000D01*
G01*
G37*
G36*
G01*
X73771000Y-77000000D02*
X73771000Y-75400000D01*
G75*
G02*
X74025000Y-75146000I254000J0D01*
G01*
X75025000Y-75146000D01*
G75*
G02*
X75279000Y-75400000I0J-254000D01*
G01*
X75279000Y-77000000D01*
G75*
G02*
X75025000Y-77254000I-254000J0D01*
G01*
X74025000Y-77254000D01*
G75*
G02*
X73771000Y-77000000I0J254000D01*
G01*
G37*
G36*
G01*
X51721000Y-74460000D02*
X51721000Y-72860000D01*
G75*
G02*
X51975000Y-72606000I254000J0D01*
G01*
X52975000Y-72606000D01*
G75*
G02*
X53229000Y-72860000I0J-254000D01*
G01*
X53229000Y-74460000D01*
G75*
G02*
X52975000Y-74714000I-254000J0D01*
G01*
X51975000Y-74714000D01*
G75*
G02*
X51721000Y-74460000I0J254000D01*
G01*
G37*
G36*
G01*
X54721000Y-74460000D02*
X54721000Y-72860000D01*
G75*
G02*
X54975000Y-72606000I254000J0D01*
G01*
X55975000Y-72606000D01*
G75*
G02*
X56229000Y-72860000I0J-254000D01*
G01*
X56229000Y-74460000D01*
G75*
G02*
X55975000Y-74714000I-254000J0D01*
G01*
X54975000Y-74714000D01*
G75*
G02*
X54721000Y-74460000I0J254000D01*
G01*
G37*
G36*
G01*
X58071000Y-74460000D02*
X58071000Y-72860000D01*
G75*
G02*
X58325000Y-72606000I254000J0D01*
G01*
X59325000Y-72606000D01*
G75*
G02*
X59579000Y-72860000I0J-254000D01*
G01*
X59579000Y-74460000D01*
G75*
G02*
X59325000Y-74714000I-254000J0D01*
G01*
X58325000Y-74714000D01*
G75*
G02*
X58071000Y-74460000I0J254000D01*
G01*
G37*
G36*
G01*
X61071000Y-74460000D02*
X61071000Y-72860000D01*
G75*
G02*
X61325000Y-72606000I254000J0D01*
G01*
X62325000Y-72606000D01*
G75*
G02*
X62579000Y-72860000I0J-254000D01*
G01*
X62579000Y-74460000D01*
G75*
G02*
X62325000Y-74714000I-254000J0D01*
G01*
X61325000Y-74714000D01*
G75*
G02*
X61071000Y-74460000I0J254000D01*
G01*
G37*
G36*
G01*
X64421000Y-74460000D02*
X64421000Y-72860000D01*
G75*
G02*
X64675000Y-72606000I254000J0D01*
G01*
X65675000Y-72606000D01*
G75*
G02*
X65929000Y-72860000I0J-254000D01*
G01*
X65929000Y-74460000D01*
G75*
G02*
X65675000Y-74714000I-254000J0D01*
G01*
X64675000Y-74714000D01*
G75*
G02*
X64421000Y-74460000I0J254000D01*
G01*
G37*
G36*
G01*
X67421000Y-74460000D02*
X67421000Y-72860000D01*
G75*
G02*
X67675000Y-72606000I254000J0D01*
G01*
X68675000Y-72606000D01*
G75*
G02*
X68929000Y-72860000I0J-254000D01*
G01*
X68929000Y-74460000D01*
G75*
G02*
X68675000Y-74714000I-254000J0D01*
G01*
X67675000Y-74714000D01*
G75*
G02*
X67421000Y-74460000I0J254000D01*
G01*
G37*
G36*
G01*
X70771000Y-74460000D02*
X70771000Y-72860000D01*
G75*
G02*
X71025000Y-72606000I254000J0D01*
G01*
X72025000Y-72606000D01*
G75*
G02*
X72279000Y-72860000I0J-254000D01*
G01*
X72279000Y-74460000D01*
G75*
G02*
X72025000Y-74714000I-254000J0D01*
G01*
X71025000Y-74714000D01*
G75*
G02*
X70771000Y-74460000I0J254000D01*
G01*
G37*
G36*
G01*
X73771000Y-74460000D02*
X73771000Y-72860000D01*
G75*
G02*
X74025000Y-72606000I254000J0D01*
G01*
X75025000Y-72606000D01*
G75*
G02*
X75279000Y-72860000I0J-254000D01*
G01*
X75279000Y-74460000D01*
G75*
G02*
X75025000Y-74714000I-254000J0D01*
G01*
X74025000Y-74714000D01*
G75*
G02*
X73771000Y-74460000I0J254000D01*
G01*
G37*
G36*
G01*
X51721000Y-71920000D02*
X51721000Y-70320000D01*
G75*
G02*
X51975000Y-70066000I254000J0D01*
G01*
X52975000Y-70066000D01*
G75*
G02*
X53229000Y-70320000I0J-254000D01*
G01*
X53229000Y-71920000D01*
G75*
G02*
X52975000Y-72174000I-254000J0D01*
G01*
X51975000Y-72174000D01*
G75*
G02*
X51721000Y-71920000I0J254000D01*
G01*
G37*
G36*
G01*
X54721000Y-71920000D02*
X54721000Y-70320000D01*
G75*
G02*
X54975000Y-70066000I254000J0D01*
G01*
X55975000Y-70066000D01*
G75*
G02*
X56229000Y-70320000I0J-254000D01*
G01*
X56229000Y-71920000D01*
G75*
G02*
X55975000Y-72174000I-254000J0D01*
G01*
X54975000Y-72174000D01*
G75*
G02*
X54721000Y-71920000I0J254000D01*
G01*
G37*
G36*
G01*
X58071000Y-71920000D02*
X58071000Y-70320000D01*
G75*
G02*
X58325000Y-70066000I254000J0D01*
G01*
X59325000Y-70066000D01*
G75*
G02*
X59579000Y-70320000I0J-254000D01*
G01*
X59579000Y-71920000D01*
G75*
G02*
X59325000Y-72174000I-254000J0D01*
G01*
X58325000Y-72174000D01*
G75*
G02*
X58071000Y-71920000I0J254000D01*
G01*
G37*
G36*
G01*
X61071000Y-71920000D02*
X61071000Y-70320000D01*
G75*
G02*
X61325000Y-70066000I254000J0D01*
G01*
X62325000Y-70066000D01*
G75*
G02*
X62579000Y-70320000I0J-254000D01*
G01*
X62579000Y-71920000D01*
G75*
G02*
X62325000Y-72174000I-254000J0D01*
G01*
X61325000Y-72174000D01*
G75*
G02*
X61071000Y-71920000I0J254000D01*
G01*
G37*
G36*
G01*
X64421000Y-71920000D02*
X64421000Y-70320000D01*
G75*
G02*
X64675000Y-70066000I254000J0D01*
G01*
X65675000Y-70066000D01*
G75*
G02*
X65929000Y-70320000I0J-254000D01*
G01*
X65929000Y-71920000D01*
G75*
G02*
X65675000Y-72174000I-254000J0D01*
G01*
X64675000Y-72174000D01*
G75*
G02*
X64421000Y-71920000I0J254000D01*
G01*
G37*
G36*
G01*
X67421000Y-71920000D02*
X67421000Y-70320000D01*
G75*
G02*
X67675000Y-70066000I254000J0D01*
G01*
X68675000Y-70066000D01*
G75*
G02*
X68929000Y-70320000I0J-254000D01*
G01*
X68929000Y-71920000D01*
G75*
G02*
X68675000Y-72174000I-254000J0D01*
G01*
X67675000Y-72174000D01*
G75*
G02*
X67421000Y-71920000I0J254000D01*
G01*
G37*
G36*
G01*
X70771000Y-71920000D02*
X70771000Y-70320000D01*
G75*
G02*
X71025000Y-70066000I254000J0D01*
G01*
X72025000Y-70066000D01*
G75*
G02*
X72279000Y-70320000I0J-254000D01*
G01*
X72279000Y-71920000D01*
G75*
G02*
X72025000Y-72174000I-254000J0D01*
G01*
X71025000Y-72174000D01*
G75*
G02*
X70771000Y-71920000I0J254000D01*
G01*
G37*
G36*
G01*
X73771000Y-71920000D02*
X73771000Y-70320000D01*
G75*
G02*
X74025000Y-70066000I254000J0D01*
G01*
X75025000Y-70066000D01*
G75*
G02*
X75279000Y-70320000I0J-254000D01*
G01*
X75279000Y-71920000D01*
G75*
G02*
X75025000Y-72174000I-254000J0D01*
G01*
X74025000Y-72174000D01*
G75*
G02*
X73771000Y-71920000I0J254000D01*
G01*
G37*
G36*
G01*
X51721000Y-69380000D02*
X51721000Y-67780000D01*
G75*
G02*
X51975000Y-67526000I254000J0D01*
G01*
X52975000Y-67526000D01*
G75*
G02*
X53229000Y-67780000I0J-254000D01*
G01*
X53229000Y-69380000D01*
G75*
G02*
X52975000Y-69634000I-254000J0D01*
G01*
X51975000Y-69634000D01*
G75*
G02*
X51721000Y-69380000I0J254000D01*
G01*
G37*
G36*
G01*
X54721000Y-69380000D02*
X54721000Y-67780000D01*
G75*
G02*
X54975000Y-67526000I254000J0D01*
G01*
X55975000Y-67526000D01*
G75*
G02*
X56229000Y-67780000I0J-254000D01*
G01*
X56229000Y-69380000D01*
G75*
G02*
X55975000Y-69634000I-254000J0D01*
G01*
X54975000Y-69634000D01*
G75*
G02*
X54721000Y-69380000I0J254000D01*
G01*
G37*
G36*
G01*
X58071000Y-69380000D02*
X58071000Y-67780000D01*
G75*
G02*
X58325000Y-67526000I254000J0D01*
G01*
X59325000Y-67526000D01*
G75*
G02*
X59579000Y-67780000I0J-254000D01*
G01*
X59579000Y-69380000D01*
G75*
G02*
X59325000Y-69634000I-254000J0D01*
G01*
X58325000Y-69634000D01*
G75*
G02*
X58071000Y-69380000I0J254000D01*
G01*
G37*
G36*
G01*
X61071000Y-69380000D02*
X61071000Y-67780000D01*
G75*
G02*
X61325000Y-67526000I254000J0D01*
G01*
X62325000Y-67526000D01*
G75*
G02*
X62579000Y-67780000I0J-254000D01*
G01*
X62579000Y-69380000D01*
G75*
G02*
X62325000Y-69634000I-254000J0D01*
G01*
X61325000Y-69634000D01*
G75*
G02*
X61071000Y-69380000I0J254000D01*
G01*
G37*
G36*
G01*
X64421000Y-69380000D02*
X64421000Y-67780000D01*
G75*
G02*
X64675000Y-67526000I254000J0D01*
G01*
X65675000Y-67526000D01*
G75*
G02*
X65929000Y-67780000I0J-254000D01*
G01*
X65929000Y-69380000D01*
G75*
G02*
X65675000Y-69634000I-254000J0D01*
G01*
X64675000Y-69634000D01*
G75*
G02*
X64421000Y-69380000I0J254000D01*
G01*
G37*
G36*
G01*
X67421000Y-69380000D02*
X67421000Y-67780000D01*
G75*
G02*
X67675000Y-67526000I254000J0D01*
G01*
X68675000Y-67526000D01*
G75*
G02*
X68929000Y-67780000I0J-254000D01*
G01*
X68929000Y-69380000D01*
G75*
G02*
X68675000Y-69634000I-254000J0D01*
G01*
X67675000Y-69634000D01*
G75*
G02*
X67421000Y-69380000I0J254000D01*
G01*
G37*
G36*
G01*
X70771000Y-69380000D02*
X70771000Y-67780000D01*
G75*
G02*
X71025000Y-67526000I254000J0D01*
G01*
X72025000Y-67526000D01*
G75*
G02*
X72279000Y-67780000I0J-254000D01*
G01*
X72279000Y-69380000D01*
G75*
G02*
X72025000Y-69634000I-254000J0D01*
G01*
X71025000Y-69634000D01*
G75*
G02*
X70771000Y-69380000I0J254000D01*
G01*
G37*
G36*
G01*
X73771000Y-69380000D02*
X73771000Y-67780000D01*
G75*
G02*
X74025000Y-67526000I254000J0D01*
G01*
X75025000Y-67526000D01*
G75*
G02*
X75279000Y-67780000I0J-254000D01*
G01*
X75279000Y-69380000D01*
G75*
G02*
X75025000Y-69634000I-254000J0D01*
G01*
X74025000Y-69634000D01*
G75*
G02*
X73771000Y-69380000I0J254000D01*
G01*
G37*
G36*
G01*
X51721000Y-66840000D02*
X51721000Y-65240000D01*
G75*
G02*
X51975000Y-64986000I254000J0D01*
G01*
X52975000Y-64986000D01*
G75*
G02*
X53229000Y-65240000I0J-254000D01*
G01*
X53229000Y-66840000D01*
G75*
G02*
X52975000Y-67094000I-254000J0D01*
G01*
X51975000Y-67094000D01*
G75*
G02*
X51721000Y-66840000I0J254000D01*
G01*
G37*
G36*
G01*
X54721000Y-66840000D02*
X54721000Y-65240000D01*
G75*
G02*
X54975000Y-64986000I254000J0D01*
G01*
X55975000Y-64986000D01*
G75*
G02*
X56229000Y-65240000I0J-254000D01*
G01*
X56229000Y-66840000D01*
G75*
G02*
X55975000Y-67094000I-254000J0D01*
G01*
X54975000Y-67094000D01*
G75*
G02*
X54721000Y-66840000I0J254000D01*
G01*
G37*
G36*
G01*
X58071000Y-66840000D02*
X58071000Y-65240000D01*
G75*
G02*
X58325000Y-64986000I254000J0D01*
G01*
X59325000Y-64986000D01*
G75*
G02*
X59579000Y-65240000I0J-254000D01*
G01*
X59579000Y-66840000D01*
G75*
G02*
X59325000Y-67094000I-254000J0D01*
G01*
X58325000Y-67094000D01*
G75*
G02*
X58071000Y-66840000I0J254000D01*
G01*
G37*
G36*
G01*
X61071000Y-66840000D02*
X61071000Y-65240000D01*
G75*
G02*
X61325000Y-64986000I254000J0D01*
G01*
X62325000Y-64986000D01*
G75*
G02*
X62579000Y-65240000I0J-254000D01*
G01*
X62579000Y-66840000D01*
G75*
G02*
X62325000Y-67094000I-254000J0D01*
G01*
X61325000Y-67094000D01*
G75*
G02*
X61071000Y-66840000I0J254000D01*
G01*
G37*
G36*
G01*
X64421000Y-66840000D02*
X64421000Y-65240000D01*
G75*
G02*
X64675000Y-64986000I254000J0D01*
G01*
X65675000Y-64986000D01*
G75*
G02*
X65929000Y-65240000I0J-254000D01*
G01*
X65929000Y-66840000D01*
G75*
G02*
X65675000Y-67094000I-254000J0D01*
G01*
X64675000Y-67094000D01*
G75*
G02*
X64421000Y-66840000I0J254000D01*
G01*
G37*
G36*
G01*
X67421000Y-66840000D02*
X67421000Y-65240000D01*
G75*
G02*
X67675000Y-64986000I254000J0D01*
G01*
X68675000Y-64986000D01*
G75*
G02*
X68929000Y-65240000I0J-254000D01*
G01*
X68929000Y-66840000D01*
G75*
G02*
X68675000Y-67094000I-254000J0D01*
G01*
X67675000Y-67094000D01*
G75*
G02*
X67421000Y-66840000I0J254000D01*
G01*
G37*
G36*
G01*
X70771000Y-66840000D02*
X70771000Y-65240000D01*
G75*
G02*
X71025000Y-64986000I254000J0D01*
G01*
X72025000Y-64986000D01*
G75*
G02*
X72279000Y-65240000I0J-254000D01*
G01*
X72279000Y-66840000D01*
G75*
G02*
X72025000Y-67094000I-254000J0D01*
G01*
X71025000Y-67094000D01*
G75*
G02*
X70771000Y-66840000I0J254000D01*
G01*
G37*
G36*
G01*
X73771000Y-66840000D02*
X73771000Y-65240000D01*
G75*
G02*
X74025000Y-64986000I254000J0D01*
G01*
X75025000Y-64986000D01*
G75*
G02*
X75279000Y-65240000I0J-254000D01*
G01*
X75279000Y-66840000D01*
G75*
G02*
X75025000Y-67094000I-254000J0D01*
G01*
X74025000Y-67094000D01*
G75*
G02*
X73771000Y-66840000I0J254000D01*
G01*
G37*
G36*
G01*
X51721000Y-64300000D02*
X51721000Y-62700000D01*
G75*
G02*
X51975000Y-62446000I254000J0D01*
G01*
X52975000Y-62446000D01*
G75*
G02*
X53229000Y-62700000I0J-254000D01*
G01*
X53229000Y-64300000D01*
G75*
G02*
X52975000Y-64554000I-254000J0D01*
G01*
X51975000Y-64554000D01*
G75*
G02*
X51721000Y-64300000I0J254000D01*
G01*
G37*
G36*
G01*
X54721000Y-64300000D02*
X54721000Y-62700000D01*
G75*
G02*
X54975000Y-62446000I254000J0D01*
G01*
X55975000Y-62446000D01*
G75*
G02*
X56229000Y-62700000I0J-254000D01*
G01*
X56229000Y-64300000D01*
G75*
G02*
X55975000Y-64554000I-254000J0D01*
G01*
X54975000Y-64554000D01*
G75*
G02*
X54721000Y-64300000I0J254000D01*
G01*
G37*
G36*
G01*
X58071000Y-64300000D02*
X58071000Y-62700000D01*
G75*
G02*
X58325000Y-62446000I254000J0D01*
G01*
X59325000Y-62446000D01*
G75*
G02*
X59579000Y-62700000I0J-254000D01*
G01*
X59579000Y-64300000D01*
G75*
G02*
X59325000Y-64554000I-254000J0D01*
G01*
X58325000Y-64554000D01*
G75*
G02*
X58071000Y-64300000I0J254000D01*
G01*
G37*
G36*
G01*
X61071000Y-64300000D02*
X61071000Y-62700000D01*
G75*
G02*
X61325000Y-62446000I254000J0D01*
G01*
X62325000Y-62446000D01*
G75*
G02*
X62579000Y-62700000I0J-254000D01*
G01*
X62579000Y-64300000D01*
G75*
G02*
X62325000Y-64554000I-254000J0D01*
G01*
X61325000Y-64554000D01*
G75*
G02*
X61071000Y-64300000I0J254000D01*
G01*
G37*
G36*
G01*
X64421000Y-64300000D02*
X64421000Y-62700000D01*
G75*
G02*
X64675000Y-62446000I254000J0D01*
G01*
X65675000Y-62446000D01*
G75*
G02*
X65929000Y-62700000I0J-254000D01*
G01*
X65929000Y-64300000D01*
G75*
G02*
X65675000Y-64554000I-254000J0D01*
G01*
X64675000Y-64554000D01*
G75*
G02*
X64421000Y-64300000I0J254000D01*
G01*
G37*
G36*
G01*
X67421000Y-64300000D02*
X67421000Y-62700000D01*
G75*
G02*
X67675000Y-62446000I254000J0D01*
G01*
X68675000Y-62446000D01*
G75*
G02*
X68929000Y-62700000I0J-254000D01*
G01*
X68929000Y-64300000D01*
G75*
G02*
X68675000Y-64554000I-254000J0D01*
G01*
X67675000Y-64554000D01*
G75*
G02*
X67421000Y-64300000I0J254000D01*
G01*
G37*
G36*
G01*
X70771000Y-64300000D02*
X70771000Y-62700000D01*
G75*
G02*
X71025000Y-62446000I254000J0D01*
G01*
X72025000Y-62446000D01*
G75*
G02*
X72279000Y-62700000I0J-254000D01*
G01*
X72279000Y-64300000D01*
G75*
G02*
X72025000Y-64554000I-254000J0D01*
G01*
X71025000Y-64554000D01*
G75*
G02*
X70771000Y-64300000I0J254000D01*
G01*
G37*
G36*
G01*
X73771000Y-64300000D02*
X73771000Y-62700000D01*
G75*
G02*
X74025000Y-62446000I254000J0D01*
G01*
X75025000Y-62446000D01*
G75*
G02*
X75279000Y-62700000I0J-254000D01*
G01*
X75279000Y-64300000D01*
G75*
G02*
X75025000Y-64554000I-254000J0D01*
G01*
X74025000Y-64554000D01*
G75*
G02*
X73771000Y-64300000I0J254000D01*
G01*
G37*
G36*
G01*
X51721000Y-61760000D02*
X51721000Y-60160000D01*
G75*
G02*
X51975000Y-59906000I254000J0D01*
G01*
X52975000Y-59906000D01*
G75*
G02*
X53229000Y-60160000I0J-254000D01*
G01*
X53229000Y-61760000D01*
G75*
G02*
X52975000Y-62014000I-254000J0D01*
G01*
X51975000Y-62014000D01*
G75*
G02*
X51721000Y-61760000I0J254000D01*
G01*
G37*
G36*
G01*
X54721000Y-61760000D02*
X54721000Y-60160000D01*
G75*
G02*
X54975000Y-59906000I254000J0D01*
G01*
X55975000Y-59906000D01*
G75*
G02*
X56229000Y-60160000I0J-254000D01*
G01*
X56229000Y-61760000D01*
G75*
G02*
X55975000Y-62014000I-254000J0D01*
G01*
X54975000Y-62014000D01*
G75*
G02*
X54721000Y-61760000I0J254000D01*
G01*
G37*
G36*
G01*
X58071000Y-61760000D02*
X58071000Y-60160000D01*
G75*
G02*
X58325000Y-59906000I254000J0D01*
G01*
X59325000Y-59906000D01*
G75*
G02*
X59579000Y-60160000I0J-254000D01*
G01*
X59579000Y-61760000D01*
G75*
G02*
X59325000Y-62014000I-254000J0D01*
G01*
X58325000Y-62014000D01*
G75*
G02*
X58071000Y-61760000I0J254000D01*
G01*
G37*
G36*
G01*
X61071000Y-61760000D02*
X61071000Y-60160000D01*
G75*
G02*
X61325000Y-59906000I254000J0D01*
G01*
X62325000Y-59906000D01*
G75*
G02*
X62579000Y-60160000I0J-254000D01*
G01*
X62579000Y-61760000D01*
G75*
G02*
X62325000Y-62014000I-254000J0D01*
G01*
X61325000Y-62014000D01*
G75*
G02*
X61071000Y-61760000I0J254000D01*
G01*
G37*
G36*
G01*
X64421000Y-61760000D02*
X64421000Y-60160000D01*
G75*
G02*
X64675000Y-59906000I254000J0D01*
G01*
X65675000Y-59906000D01*
G75*
G02*
X65929000Y-60160000I0J-254000D01*
G01*
X65929000Y-61760000D01*
G75*
G02*
X65675000Y-62014000I-254000J0D01*
G01*
X64675000Y-62014000D01*
G75*
G02*
X64421000Y-61760000I0J254000D01*
G01*
G37*
G36*
G01*
X67421000Y-61760000D02*
X67421000Y-60160000D01*
G75*
G02*
X67675000Y-59906000I254000J0D01*
G01*
X68675000Y-59906000D01*
G75*
G02*
X68929000Y-60160000I0J-254000D01*
G01*
X68929000Y-61760000D01*
G75*
G02*
X68675000Y-62014000I-254000J0D01*
G01*
X67675000Y-62014000D01*
G75*
G02*
X67421000Y-61760000I0J254000D01*
G01*
G37*
G36*
G01*
X70771000Y-61760000D02*
X70771000Y-60160000D01*
G75*
G02*
X71025000Y-59906000I254000J0D01*
G01*
X72025000Y-59906000D01*
G75*
G02*
X72279000Y-60160000I0J-254000D01*
G01*
X72279000Y-61760000D01*
G75*
G02*
X72025000Y-62014000I-254000J0D01*
G01*
X71025000Y-62014000D01*
G75*
G02*
X70771000Y-61760000I0J254000D01*
G01*
G37*
G36*
G01*
X73771000Y-61760000D02*
X73771000Y-60160000D01*
G75*
G02*
X74025000Y-59906000I254000J0D01*
G01*
X75025000Y-59906000D01*
G75*
G02*
X75279000Y-60160000I0J-254000D01*
G01*
X75279000Y-61760000D01*
G75*
G02*
X75025000Y-62014000I-254000J0D01*
G01*
X74025000Y-62014000D01*
G75*
G02*
X73771000Y-61760000I0J254000D01*
G01*
G37*
G36*
G01*
X51721000Y-59220000D02*
X51721000Y-57620000D01*
G75*
G02*
X51975000Y-57366000I254000J0D01*
G01*
X52975000Y-57366000D01*
G75*
G02*
X53229000Y-57620000I0J-254000D01*
G01*
X53229000Y-59220000D01*
G75*
G02*
X52975000Y-59474000I-254000J0D01*
G01*
X51975000Y-59474000D01*
G75*
G02*
X51721000Y-59220000I0J254000D01*
G01*
G37*
G36*
G01*
X54721000Y-59220000D02*
X54721000Y-57620000D01*
G75*
G02*
X54975000Y-57366000I254000J0D01*
G01*
X55975000Y-57366000D01*
G75*
G02*
X56229000Y-57620000I0J-254000D01*
G01*
X56229000Y-59220000D01*
G75*
G02*
X55975000Y-59474000I-254000J0D01*
G01*
X54975000Y-59474000D01*
G75*
G02*
X54721000Y-59220000I0J254000D01*
G01*
G37*
G36*
G01*
X58071000Y-59220000D02*
X58071000Y-57620000D01*
G75*
G02*
X58325000Y-57366000I254000J0D01*
G01*
X59325000Y-57366000D01*
G75*
G02*
X59579000Y-57620000I0J-254000D01*
G01*
X59579000Y-59220000D01*
G75*
G02*
X59325000Y-59474000I-254000J0D01*
G01*
X58325000Y-59474000D01*
G75*
G02*
X58071000Y-59220000I0J254000D01*
G01*
G37*
G36*
G01*
X61071000Y-59220000D02*
X61071000Y-57620000D01*
G75*
G02*
X61325000Y-57366000I254000J0D01*
G01*
X62325000Y-57366000D01*
G75*
G02*
X62579000Y-57620000I0J-254000D01*
G01*
X62579000Y-59220000D01*
G75*
G02*
X62325000Y-59474000I-254000J0D01*
G01*
X61325000Y-59474000D01*
G75*
G02*
X61071000Y-59220000I0J254000D01*
G01*
G37*
G36*
G01*
X64421000Y-59220000D02*
X64421000Y-57620000D01*
G75*
G02*
X64675000Y-57366000I254000J0D01*
G01*
X65675000Y-57366000D01*
G75*
G02*
X65929000Y-57620000I0J-254000D01*
G01*
X65929000Y-59220000D01*
G75*
G02*
X65675000Y-59474000I-254000J0D01*
G01*
X64675000Y-59474000D01*
G75*
G02*
X64421000Y-59220000I0J254000D01*
G01*
G37*
G36*
G01*
X67421000Y-59220000D02*
X67421000Y-57620000D01*
G75*
G02*
X67675000Y-57366000I254000J0D01*
G01*
X68675000Y-57366000D01*
G75*
G02*
X68929000Y-57620000I0J-254000D01*
G01*
X68929000Y-59220000D01*
G75*
G02*
X68675000Y-59474000I-254000J0D01*
G01*
X67675000Y-59474000D01*
G75*
G02*
X67421000Y-59220000I0J254000D01*
G01*
G37*
G36*
G01*
X70771000Y-59220000D02*
X70771000Y-57620000D01*
G75*
G02*
X71025000Y-57366000I254000J0D01*
G01*
X72025000Y-57366000D01*
G75*
G02*
X72279000Y-57620000I0J-254000D01*
G01*
X72279000Y-59220000D01*
G75*
G02*
X72025000Y-59474000I-254000J0D01*
G01*
X71025000Y-59474000D01*
G75*
G02*
X70771000Y-59220000I0J254000D01*
G01*
G37*
G36*
G01*
X73771000Y-59220000D02*
X73771000Y-57620000D01*
G75*
G02*
X74025000Y-57366000I254000J0D01*
G01*
X75025000Y-57366000D01*
G75*
G02*
X75279000Y-57620000I0J-254000D01*
G01*
X75279000Y-59220000D01*
G75*
G02*
X75025000Y-59474000I-254000J0D01*
G01*
X74025000Y-59474000D01*
G75*
G02*
X73771000Y-59220000I0J254000D01*
G01*
G37*
G36*
G01*
X51721000Y-56680000D02*
X51721000Y-55080000D01*
G75*
G02*
X51975000Y-54826000I254000J0D01*
G01*
X52975000Y-54826000D01*
G75*
G02*
X53229000Y-55080000I0J-254000D01*
G01*
X53229000Y-56680000D01*
G75*
G02*
X52975000Y-56934000I-254000J0D01*
G01*
X51975000Y-56934000D01*
G75*
G02*
X51721000Y-56680000I0J254000D01*
G01*
G37*
G36*
G01*
X54721000Y-56680000D02*
X54721000Y-55080000D01*
G75*
G02*
X54975000Y-54826000I254000J0D01*
G01*
X55975000Y-54826000D01*
G75*
G02*
X56229000Y-55080000I0J-254000D01*
G01*
X56229000Y-56680000D01*
G75*
G02*
X55975000Y-56934000I-254000J0D01*
G01*
X54975000Y-56934000D01*
G75*
G02*
X54721000Y-56680000I0J254000D01*
G01*
G37*
G36*
G01*
X58071000Y-56680000D02*
X58071000Y-55080000D01*
G75*
G02*
X58325000Y-54826000I254000J0D01*
G01*
X59325000Y-54826000D01*
G75*
G02*
X59579000Y-55080000I0J-254000D01*
G01*
X59579000Y-56680000D01*
G75*
G02*
X59325000Y-56934000I-254000J0D01*
G01*
X58325000Y-56934000D01*
G75*
G02*
X58071000Y-56680000I0J254000D01*
G01*
G37*
G36*
G01*
X61071000Y-56680000D02*
X61071000Y-55080000D01*
G75*
G02*
X61325000Y-54826000I254000J0D01*
G01*
X62325000Y-54826000D01*
G75*
G02*
X62579000Y-55080000I0J-254000D01*
G01*
X62579000Y-56680000D01*
G75*
G02*
X62325000Y-56934000I-254000J0D01*
G01*
X61325000Y-56934000D01*
G75*
G02*
X61071000Y-56680000I0J254000D01*
G01*
G37*
G36*
G01*
X64421000Y-56680000D02*
X64421000Y-55080000D01*
G75*
G02*
X64675000Y-54826000I254000J0D01*
G01*
X65675000Y-54826000D01*
G75*
G02*
X65929000Y-55080000I0J-254000D01*
G01*
X65929000Y-56680000D01*
G75*
G02*
X65675000Y-56934000I-254000J0D01*
G01*
X64675000Y-56934000D01*
G75*
G02*
X64421000Y-56680000I0J254000D01*
G01*
G37*
G36*
G01*
X67421000Y-56680000D02*
X67421000Y-55080000D01*
G75*
G02*
X67675000Y-54826000I254000J0D01*
G01*
X68675000Y-54826000D01*
G75*
G02*
X68929000Y-55080000I0J-254000D01*
G01*
X68929000Y-56680000D01*
G75*
G02*
X68675000Y-56934000I-254000J0D01*
G01*
X67675000Y-56934000D01*
G75*
G02*
X67421000Y-56680000I0J254000D01*
G01*
G37*
G36*
G01*
X70771000Y-56680000D02*
X70771000Y-55080000D01*
G75*
G02*
X71025000Y-54826000I254000J0D01*
G01*
X72025000Y-54826000D01*
G75*
G02*
X72279000Y-55080000I0J-254000D01*
G01*
X72279000Y-56680000D01*
G75*
G02*
X72025000Y-56934000I-254000J0D01*
G01*
X71025000Y-56934000D01*
G75*
G02*
X70771000Y-56680000I0J254000D01*
G01*
G37*
G36*
G01*
X73771000Y-56680000D02*
X73771000Y-55080000D01*
G75*
G02*
X74025000Y-54826000I254000J0D01*
G01*
X75025000Y-54826000D01*
G75*
G02*
X75279000Y-55080000I0J-254000D01*
G01*
X75279000Y-56680000D01*
G75*
G02*
X75025000Y-56934000I-254000J0D01*
G01*
X74025000Y-56934000D01*
G75*
G02*
X73771000Y-56680000I0J254000D01*
G01*
G37*
G36*
G01*
X51721000Y-54140000D02*
X51721000Y-52540000D01*
G75*
G02*
X51975000Y-52286000I254000J0D01*
G01*
X52975000Y-52286000D01*
G75*
G02*
X53229000Y-52540000I0J-254000D01*
G01*
X53229000Y-54140000D01*
G75*
G02*
X52975000Y-54394000I-254000J0D01*
G01*
X51975000Y-54394000D01*
G75*
G02*
X51721000Y-54140000I0J254000D01*
G01*
G37*
G36*
G01*
X54721000Y-54140000D02*
X54721000Y-52540000D01*
G75*
G02*
X54975000Y-52286000I254000J0D01*
G01*
X55975000Y-52286000D01*
G75*
G02*
X56229000Y-52540000I0J-254000D01*
G01*
X56229000Y-54140000D01*
G75*
G02*
X55975000Y-54394000I-254000J0D01*
G01*
X54975000Y-54394000D01*
G75*
G02*
X54721000Y-54140000I0J254000D01*
G01*
G37*
G36*
G01*
X58071000Y-54140000D02*
X58071000Y-52540000D01*
G75*
G02*
X58325000Y-52286000I254000J0D01*
G01*
X59325000Y-52286000D01*
G75*
G02*
X59579000Y-52540000I0J-254000D01*
G01*
X59579000Y-54140000D01*
G75*
G02*
X59325000Y-54394000I-254000J0D01*
G01*
X58325000Y-54394000D01*
G75*
G02*
X58071000Y-54140000I0J254000D01*
G01*
G37*
G36*
G01*
X61071000Y-54140000D02*
X61071000Y-52540000D01*
G75*
G02*
X61325000Y-52286000I254000J0D01*
G01*
X62325000Y-52286000D01*
G75*
G02*
X62579000Y-52540000I0J-254000D01*
G01*
X62579000Y-54140000D01*
G75*
G02*
X62325000Y-54394000I-254000J0D01*
G01*
X61325000Y-54394000D01*
G75*
G02*
X61071000Y-54140000I0J254000D01*
G01*
G37*
G36*
G01*
X64421000Y-54140000D02*
X64421000Y-52540000D01*
G75*
G02*
X64675000Y-52286000I254000J0D01*
G01*
X65675000Y-52286000D01*
G75*
G02*
X65929000Y-52540000I0J-254000D01*
G01*
X65929000Y-54140000D01*
G75*
G02*
X65675000Y-54394000I-254000J0D01*
G01*
X64675000Y-54394000D01*
G75*
G02*
X64421000Y-54140000I0J254000D01*
G01*
G37*
G36*
G01*
X67421000Y-54140000D02*
X67421000Y-52540000D01*
G75*
G02*
X67675000Y-52286000I254000J0D01*
G01*
X68675000Y-52286000D01*
G75*
G02*
X68929000Y-52540000I0J-254000D01*
G01*
X68929000Y-54140000D01*
G75*
G02*
X68675000Y-54394000I-254000J0D01*
G01*
X67675000Y-54394000D01*
G75*
G02*
X67421000Y-54140000I0J254000D01*
G01*
G37*
G36*
G01*
X70771000Y-54140000D02*
X70771000Y-52540000D01*
G75*
G02*
X71025000Y-52286000I254000J0D01*
G01*
X72025000Y-52286000D01*
G75*
G02*
X72279000Y-52540000I0J-254000D01*
G01*
X72279000Y-54140000D01*
G75*
G02*
X72025000Y-54394000I-254000J0D01*
G01*
X71025000Y-54394000D01*
G75*
G02*
X70771000Y-54140000I0J254000D01*
G01*
G37*
G36*
G01*
X73771000Y-54140000D02*
X73771000Y-52540000D01*
G75*
G02*
X74025000Y-52286000I254000J0D01*
G01*
X75025000Y-52286000D01*
G75*
G02*
X75279000Y-52540000I0J-254000D01*
G01*
X75279000Y-54140000D01*
G75*
G02*
X75025000Y-54394000I-254000J0D01*
G01*
X74025000Y-54394000D01*
G75*
G02*
X73771000Y-54140000I0J254000D01*
G01*
G37*
G36*
G01*
X51721000Y-51600000D02*
X51721000Y-50000000D01*
G75*
G02*
X51975000Y-49746000I254000J0D01*
G01*
X52975000Y-49746000D01*
G75*
G02*
X53229000Y-50000000I0J-254000D01*
G01*
X53229000Y-51600000D01*
G75*
G02*
X52975000Y-51854000I-254000J0D01*
G01*
X51975000Y-51854000D01*
G75*
G02*
X51721000Y-51600000I0J254000D01*
G01*
G37*
G36*
G01*
X54721000Y-51600000D02*
X54721000Y-50000000D01*
G75*
G02*
X54975000Y-49746000I254000J0D01*
G01*
X55975000Y-49746000D01*
G75*
G02*
X56229000Y-50000000I0J-254000D01*
G01*
X56229000Y-51600000D01*
G75*
G02*
X55975000Y-51854000I-254000J0D01*
G01*
X54975000Y-51854000D01*
G75*
G02*
X54721000Y-51600000I0J254000D01*
G01*
G37*
G36*
G01*
X58071000Y-51600000D02*
X58071000Y-50000000D01*
G75*
G02*
X58325000Y-49746000I254000J0D01*
G01*
X59325000Y-49746000D01*
G75*
G02*
X59579000Y-50000000I0J-254000D01*
G01*
X59579000Y-51600000D01*
G75*
G02*
X59325000Y-51854000I-254000J0D01*
G01*
X58325000Y-51854000D01*
G75*
G02*
X58071000Y-51600000I0J254000D01*
G01*
G37*
G36*
G01*
X61071000Y-51600000D02*
X61071000Y-50000000D01*
G75*
G02*
X61325000Y-49746000I254000J0D01*
G01*
X62325000Y-49746000D01*
G75*
G02*
X62579000Y-50000000I0J-254000D01*
G01*
X62579000Y-51600000D01*
G75*
G02*
X62325000Y-51854000I-254000J0D01*
G01*
X61325000Y-51854000D01*
G75*
G02*
X61071000Y-51600000I0J254000D01*
G01*
G37*
G36*
G01*
X64421000Y-51600000D02*
X64421000Y-50000000D01*
G75*
G02*
X64675000Y-49746000I254000J0D01*
G01*
X65675000Y-49746000D01*
G75*
G02*
X65929000Y-50000000I0J-254000D01*
G01*
X65929000Y-51600000D01*
G75*
G02*
X65675000Y-51854000I-254000J0D01*
G01*
X64675000Y-51854000D01*
G75*
G02*
X64421000Y-51600000I0J254000D01*
G01*
G37*
G36*
G01*
X67421000Y-51600000D02*
X67421000Y-50000000D01*
G75*
G02*
X67675000Y-49746000I254000J0D01*
G01*
X68675000Y-49746000D01*
G75*
G02*
X68929000Y-50000000I0J-254000D01*
G01*
X68929000Y-51600000D01*
G75*
G02*
X68675000Y-51854000I-254000J0D01*
G01*
X67675000Y-51854000D01*
G75*
G02*
X67421000Y-51600000I0J254000D01*
G01*
G37*
G36*
G01*
X70771000Y-51600000D02*
X70771000Y-50000000D01*
G75*
G02*
X71025000Y-49746000I254000J0D01*
G01*
X72025000Y-49746000D01*
G75*
G02*
X72279000Y-50000000I0J-254000D01*
G01*
X72279000Y-51600000D01*
G75*
G02*
X72025000Y-51854000I-254000J0D01*
G01*
X71025000Y-51854000D01*
G75*
G02*
X70771000Y-51600000I0J254000D01*
G01*
G37*
G36*
G01*
X73771000Y-51600000D02*
X73771000Y-50000000D01*
G75*
G02*
X74025000Y-49746000I254000J0D01*
G01*
X75025000Y-49746000D01*
G75*
G02*
X75279000Y-50000000I0J-254000D01*
G01*
X75279000Y-51600000D01*
G75*
G02*
X75025000Y-51854000I-254000J0D01*
G01*
X74025000Y-51854000D01*
G75*
G02*
X73771000Y-51600000I0J254000D01*
G01*
G37*
G36*
G01*
X51721000Y-49060000D02*
X51721000Y-47460000D01*
G75*
G02*
X51975000Y-47206000I254000J0D01*
G01*
X52975000Y-47206000D01*
G75*
G02*
X53229000Y-47460000I0J-254000D01*
G01*
X53229000Y-49060000D01*
G75*
G02*
X52975000Y-49314000I-254000J0D01*
G01*
X51975000Y-49314000D01*
G75*
G02*
X51721000Y-49060000I0J254000D01*
G01*
G37*
G36*
G01*
X54721000Y-49060000D02*
X54721000Y-47460000D01*
G75*
G02*
X54975000Y-47206000I254000J0D01*
G01*
X55975000Y-47206000D01*
G75*
G02*
X56229000Y-47460000I0J-254000D01*
G01*
X56229000Y-49060000D01*
G75*
G02*
X55975000Y-49314000I-254000J0D01*
G01*
X54975000Y-49314000D01*
G75*
G02*
X54721000Y-49060000I0J254000D01*
G01*
G37*
G36*
G01*
X58071000Y-49060000D02*
X58071000Y-47460000D01*
G75*
G02*
X58325000Y-47206000I254000J0D01*
G01*
X59325000Y-47206000D01*
G75*
G02*
X59579000Y-47460000I0J-254000D01*
G01*
X59579000Y-49060000D01*
G75*
G02*
X59325000Y-49314000I-254000J0D01*
G01*
X58325000Y-49314000D01*
G75*
G02*
X58071000Y-49060000I0J254000D01*
G01*
G37*
G36*
G01*
X61071000Y-49060000D02*
X61071000Y-47460000D01*
G75*
G02*
X61325000Y-47206000I254000J0D01*
G01*
X62325000Y-47206000D01*
G75*
G02*
X62579000Y-47460000I0J-254000D01*
G01*
X62579000Y-49060000D01*
G75*
G02*
X62325000Y-49314000I-254000J0D01*
G01*
X61325000Y-49314000D01*
G75*
G02*
X61071000Y-49060000I0J254000D01*
G01*
G37*
G36*
G01*
X64421000Y-49060000D02*
X64421000Y-47460000D01*
G75*
G02*
X64675000Y-47206000I254000J0D01*
G01*
X65675000Y-47206000D01*
G75*
G02*
X65929000Y-47460000I0J-254000D01*
G01*
X65929000Y-49060000D01*
G75*
G02*
X65675000Y-49314000I-254000J0D01*
G01*
X64675000Y-49314000D01*
G75*
G02*
X64421000Y-49060000I0J254000D01*
G01*
G37*
G36*
G01*
X67421000Y-49060000D02*
X67421000Y-47460000D01*
G75*
G02*
X67675000Y-47206000I254000J0D01*
G01*
X68675000Y-47206000D01*
G75*
G02*
X68929000Y-47460000I0J-254000D01*
G01*
X68929000Y-49060000D01*
G75*
G02*
X68675000Y-49314000I-254000J0D01*
G01*
X67675000Y-49314000D01*
G75*
G02*
X67421000Y-49060000I0J254000D01*
G01*
G37*
G36*
G01*
X70771000Y-49060000D02*
X70771000Y-47460000D01*
G75*
G02*
X71025000Y-47206000I254000J0D01*
G01*
X72025000Y-47206000D01*
G75*
G02*
X72279000Y-47460000I0J-254000D01*
G01*
X72279000Y-49060000D01*
G75*
G02*
X72025000Y-49314000I-254000J0D01*
G01*
X71025000Y-49314000D01*
G75*
G02*
X70771000Y-49060000I0J254000D01*
G01*
G37*
G36*
G01*
X73771000Y-49060000D02*
X73771000Y-47460000D01*
G75*
G02*
X74025000Y-47206000I254000J0D01*
G01*
X75025000Y-47206000D01*
G75*
G02*
X75279000Y-47460000I0J-254000D01*
G01*
X75279000Y-49060000D01*
G75*
G02*
X75025000Y-49314000I-254000J0D01*
G01*
X74025000Y-49314000D01*
G75*
G02*
X73771000Y-49060000I0J254000D01*
G01*
G37*
G36*
G01*
X51721000Y-46520000D02*
X51721000Y-44920000D01*
G75*
G02*
X51975000Y-44666000I254000J0D01*
G01*
X52975000Y-44666000D01*
G75*
G02*
X53229000Y-44920000I0J-254000D01*
G01*
X53229000Y-46520000D01*
G75*
G02*
X52975000Y-46774000I-254000J0D01*
G01*
X51975000Y-46774000D01*
G75*
G02*
X51721000Y-46520000I0J254000D01*
G01*
G37*
G36*
G01*
X54721000Y-46520000D02*
X54721000Y-44920000D01*
G75*
G02*
X54975000Y-44666000I254000J0D01*
G01*
X55975000Y-44666000D01*
G75*
G02*
X56229000Y-44920000I0J-254000D01*
G01*
X56229000Y-46520000D01*
G75*
G02*
X55975000Y-46774000I-254000J0D01*
G01*
X54975000Y-46774000D01*
G75*
G02*
X54721000Y-46520000I0J254000D01*
G01*
G37*
G36*
G01*
X58071000Y-46520000D02*
X58071000Y-44920000D01*
G75*
G02*
X58325000Y-44666000I254000J0D01*
G01*
X59325000Y-44666000D01*
G75*
G02*
X59579000Y-44920000I0J-254000D01*
G01*
X59579000Y-46520000D01*
G75*
G02*
X59325000Y-46774000I-254000J0D01*
G01*
X58325000Y-46774000D01*
G75*
G02*
X58071000Y-46520000I0J254000D01*
G01*
G37*
G36*
G01*
X61071000Y-46520000D02*
X61071000Y-44920000D01*
G75*
G02*
X61325000Y-44666000I254000J0D01*
G01*
X62325000Y-44666000D01*
G75*
G02*
X62579000Y-44920000I0J-254000D01*
G01*
X62579000Y-46520000D01*
G75*
G02*
X62325000Y-46774000I-254000J0D01*
G01*
X61325000Y-46774000D01*
G75*
G02*
X61071000Y-46520000I0J254000D01*
G01*
G37*
G36*
G01*
X64421000Y-46520000D02*
X64421000Y-44920000D01*
G75*
G02*
X64675000Y-44666000I254000J0D01*
G01*
X65675000Y-44666000D01*
G75*
G02*
X65929000Y-44920000I0J-254000D01*
G01*
X65929000Y-46520000D01*
G75*
G02*
X65675000Y-46774000I-254000J0D01*
G01*
X64675000Y-46774000D01*
G75*
G02*
X64421000Y-46520000I0J254000D01*
G01*
G37*
G36*
G01*
X67421000Y-46520000D02*
X67421000Y-44920000D01*
G75*
G02*
X67675000Y-44666000I254000J0D01*
G01*
X68675000Y-44666000D01*
G75*
G02*
X68929000Y-44920000I0J-254000D01*
G01*
X68929000Y-46520000D01*
G75*
G02*
X68675000Y-46774000I-254000J0D01*
G01*
X67675000Y-46774000D01*
G75*
G02*
X67421000Y-46520000I0J254000D01*
G01*
G37*
G36*
G01*
X70771000Y-46520000D02*
X70771000Y-44920000D01*
G75*
G02*
X71025000Y-44666000I254000J0D01*
G01*
X72025000Y-44666000D01*
G75*
G02*
X72279000Y-44920000I0J-254000D01*
G01*
X72279000Y-46520000D01*
G75*
G02*
X72025000Y-46774000I-254000J0D01*
G01*
X71025000Y-46774000D01*
G75*
G02*
X70771000Y-46520000I0J254000D01*
G01*
G37*
G36*
G01*
X73771000Y-46520000D02*
X73771000Y-44920000D01*
G75*
G02*
X74025000Y-44666000I254000J0D01*
G01*
X75025000Y-44666000D01*
G75*
G02*
X75279000Y-44920000I0J-254000D01*
G01*
X75279000Y-46520000D01*
G75*
G02*
X75025000Y-46774000I-254000J0D01*
G01*
X74025000Y-46774000D01*
G75*
G02*
X73771000Y-46520000I0J254000D01*
G01*
G37*
G36*
G01*
X51721000Y-43980000D02*
X51721000Y-42380000D01*
G75*
G02*
X51975000Y-42126000I254000J0D01*
G01*
X52975000Y-42126000D01*
G75*
G02*
X53229000Y-42380000I0J-254000D01*
G01*
X53229000Y-43980000D01*
G75*
G02*
X52975000Y-44234000I-254000J0D01*
G01*
X51975000Y-44234000D01*
G75*
G02*
X51721000Y-43980000I0J254000D01*
G01*
G37*
G36*
G01*
X54721000Y-43980000D02*
X54721000Y-42380000D01*
G75*
G02*
X54975000Y-42126000I254000J0D01*
G01*
X55975000Y-42126000D01*
G75*
G02*
X56229000Y-42380000I0J-254000D01*
G01*
X56229000Y-43980000D01*
G75*
G02*
X55975000Y-44234000I-254000J0D01*
G01*
X54975000Y-44234000D01*
G75*
G02*
X54721000Y-43980000I0J254000D01*
G01*
G37*
G36*
G01*
X58071000Y-43980000D02*
X58071000Y-42380000D01*
G75*
G02*
X58325000Y-42126000I254000J0D01*
G01*
X59325000Y-42126000D01*
G75*
G02*
X59579000Y-42380000I0J-254000D01*
G01*
X59579000Y-43980000D01*
G75*
G02*
X59325000Y-44234000I-254000J0D01*
G01*
X58325000Y-44234000D01*
G75*
G02*
X58071000Y-43980000I0J254000D01*
G01*
G37*
G36*
G01*
X61071000Y-43980000D02*
X61071000Y-42380000D01*
G75*
G02*
X61325000Y-42126000I254000J0D01*
G01*
X62325000Y-42126000D01*
G75*
G02*
X62579000Y-42380000I0J-254000D01*
G01*
X62579000Y-43980000D01*
G75*
G02*
X62325000Y-44234000I-254000J0D01*
G01*
X61325000Y-44234000D01*
G75*
G02*
X61071000Y-43980000I0J254000D01*
G01*
G37*
G36*
G01*
X64421000Y-43980000D02*
X64421000Y-42380000D01*
G75*
G02*
X64675000Y-42126000I254000J0D01*
G01*
X65675000Y-42126000D01*
G75*
G02*
X65929000Y-42380000I0J-254000D01*
G01*
X65929000Y-43980000D01*
G75*
G02*
X65675000Y-44234000I-254000J0D01*
G01*
X64675000Y-44234000D01*
G75*
G02*
X64421000Y-43980000I0J254000D01*
G01*
G37*
G36*
G01*
X67421000Y-43980000D02*
X67421000Y-42380000D01*
G75*
G02*
X67675000Y-42126000I254000J0D01*
G01*
X68675000Y-42126000D01*
G75*
G02*
X68929000Y-42380000I0J-254000D01*
G01*
X68929000Y-43980000D01*
G75*
G02*
X68675000Y-44234000I-254000J0D01*
G01*
X67675000Y-44234000D01*
G75*
G02*
X67421000Y-43980000I0J254000D01*
G01*
G37*
G36*
G01*
X70771000Y-43980000D02*
X70771000Y-42380000D01*
G75*
G02*
X71025000Y-42126000I254000J0D01*
G01*
X72025000Y-42126000D01*
G75*
G02*
X72279000Y-42380000I0J-254000D01*
G01*
X72279000Y-43980000D01*
G75*
G02*
X72025000Y-44234000I-254000J0D01*
G01*
X71025000Y-44234000D01*
G75*
G02*
X70771000Y-43980000I0J254000D01*
G01*
G37*
G36*
G01*
X73771000Y-43980000D02*
X73771000Y-42380000D01*
G75*
G02*
X74025000Y-42126000I254000J0D01*
G01*
X75025000Y-42126000D01*
G75*
G02*
X75279000Y-42380000I0J-254000D01*
G01*
X75279000Y-43980000D01*
G75*
G02*
X75025000Y-44234000I-254000J0D01*
G01*
X74025000Y-44234000D01*
G75*
G02*
X73771000Y-43980000I0J254000D01*
G01*
G37*
G36*
G01*
X102936040Y-44129960D02*
X102936040Y-42230040D01*
G75*
G02*
X103190040Y-41976040I254000J0D01*
G01*
X105089960Y-41976040D01*
G75*
G02*
X105343960Y-42230040I0J-254000D01*
G01*
X105343960Y-44129960D01*
G75*
G02*
X105089960Y-44383960I-254000J0D01*
G01*
X103190040Y-44383960D01*
G75*
G02*
X102936040Y-44129960I0J254000D01*
G01*
G37*
G36*
G01*
X105476040Y-44129960D02*
X105476040Y-42230040D01*
G75*
G02*
X105730040Y-41976040I254000J0D01*
G01*
X107629960Y-41976040D01*
G75*
G02*
X107883960Y-42230040I0J-254000D01*
G01*
X107883960Y-44129960D01*
G75*
G02*
X107629960Y-44383960I-254000J0D01*
G01*
X105730040Y-44383960D01*
G75*
G02*
X105476040Y-44129960I0J254000D01*
G01*
G37*
G36*
G01*
X108016040Y-44129960D02*
X108016040Y-42230040D01*
G75*
G02*
X108270040Y-41976040I254000J0D01*
G01*
X110169960Y-41976040D01*
G75*
G02*
X110423960Y-42230040I0J-254000D01*
G01*
X110423960Y-44129960D01*
G75*
G02*
X110169960Y-44383960I-254000J0D01*
G01*
X108270040Y-44383960D01*
G75*
G02*
X108016040Y-44129960I0J254000D01*
G01*
G37*
G36*
G01*
X110556040Y-44129960D02*
X110556040Y-42230040D01*
G75*
G02*
X110810040Y-41976040I254000J0D01*
G01*
X112709960Y-41976040D01*
G75*
G02*
X112963960Y-42230040I0J-254000D01*
G01*
X112963960Y-44129960D01*
G75*
G02*
X112709960Y-44383960I-254000J0D01*
G01*
X110810040Y-44383960D01*
G75*
G02*
X110556040Y-44129960I0J254000D01*
G01*
G37*
G36*
G01*
X105343960Y-44770040D02*
X105343960Y-46669960D01*
G75*
G02*
X105089960Y-46923960I-254000J0D01*
G01*
X103190040Y-46923960D01*
G75*
G02*
X102936040Y-46669960I0J254000D01*
G01*
X102936040Y-44770040D01*
G75*
G02*
X103190040Y-44516040I254000J0D01*
G01*
X105089960Y-44516040D01*
G75*
G02*
X105343960Y-44770040I0J-254000D01*
G01*
G37*
G36*
G01*
X107883960Y-44770040D02*
X107883960Y-46669960D01*
G75*
G02*
X107629960Y-46923960I-254000J0D01*
G01*
X105730040Y-46923960D01*
G75*
G02*
X105476040Y-46669960I0J254000D01*
G01*
X105476040Y-44770040D01*
G75*
G02*
X105730040Y-44516040I254000J0D01*
G01*
X107629960Y-44516040D01*
G75*
G02*
X107883960Y-44770040I0J-254000D01*
G01*
G37*
G36*
G01*
X110423960Y-44770040D02*
X110423960Y-46669960D01*
G75*
G02*
X110169960Y-46923960I-254000J0D01*
G01*
X108270040Y-46923960D01*
G75*
G02*
X108016040Y-46669960I0J254000D01*
G01*
X108016040Y-44770040D01*
G75*
G02*
X108270040Y-44516040I254000J0D01*
G01*
X110169960Y-44516040D01*
G75*
G02*
X110423960Y-44770040I0J-254000D01*
G01*
G37*
G36*
G01*
X112963960Y-44770040D02*
X112963960Y-46669960D01*
G75*
G02*
X112709960Y-46923960I-254000J0D01*
G01*
X110810040Y-46923960D01*
G75*
G02*
X110556040Y-46669960I0J254000D01*
G01*
X110556040Y-44770040D01*
G75*
G02*
X110810040Y-44516040I254000J0D01*
G01*
X112709960Y-44516040D01*
G75*
G02*
X112963960Y-44770040I0J-254000D01*
G01*
G37*
G36*
G01*
X105343960Y-47310040D02*
X105343960Y-49209960D01*
G75*
G02*
X105089960Y-49463960I-254000J0D01*
G01*
X103190040Y-49463960D01*
G75*
G02*
X102936040Y-49209960I0J254000D01*
G01*
X102936040Y-47310040D01*
G75*
G02*
X103190040Y-47056040I254000J0D01*
G01*
X105089960Y-47056040D01*
G75*
G02*
X105343960Y-47310040I0J-254000D01*
G01*
G37*
G36*
G01*
X105476040Y-49209960D02*
X105476040Y-47310040D01*
G75*
G02*
X105730040Y-47056040I254000J0D01*
G01*
X107629960Y-47056040D01*
G75*
G02*
X107883960Y-47310040I0J-254000D01*
G01*
X107883960Y-49209960D01*
G75*
G02*
X107629960Y-49463960I-254000J0D01*
G01*
X105730040Y-49463960D01*
G75*
G02*
X105476040Y-49209960I0J254000D01*
G01*
G37*
G36*
G01*
X108016040Y-49209960D02*
X108016040Y-47310040D01*
G75*
G02*
X108270040Y-47056040I254000J0D01*
G01*
X110169960Y-47056040D01*
G75*
G02*
X110423960Y-47310040I0J-254000D01*
G01*
X110423960Y-49209960D01*
G75*
G02*
X110169960Y-49463960I-254000J0D01*
G01*
X108270040Y-49463960D01*
G75*
G02*
X108016040Y-49209960I0J254000D01*
G01*
G37*
G36*
G01*
X110556040Y-49209960D02*
X110556040Y-47310040D01*
G75*
G02*
X110810040Y-47056040I254000J0D01*
G01*
X112709960Y-47056040D01*
G75*
G02*
X112963960Y-47310040I0J-254000D01*
G01*
X112963960Y-49209960D01*
G75*
G02*
X112709960Y-49463960I-254000J0D01*
G01*
X110810040Y-49463960D01*
G75*
G02*
X110556040Y-49209960I0J254000D01*
G01*
G37*
G36*
G01*
X102936040Y-51749960D02*
X102936040Y-49850040D01*
G75*
G02*
X103190040Y-49596040I254000J0D01*
G01*
X105089960Y-49596040D01*
G75*
G02*
X105343960Y-49850040I0J-254000D01*
G01*
X105343960Y-51749960D01*
G75*
G02*
X105089960Y-52003960I-254000J0D01*
G01*
X103190040Y-52003960D01*
G75*
G02*
X102936040Y-51749960I0J254000D01*
G01*
G37*
G36*
G01*
X105476040Y-51749960D02*
X105476040Y-49850040D01*
G75*
G02*
X105730040Y-49596040I254000J0D01*
G01*
X107629960Y-49596040D01*
G75*
G02*
X107883960Y-49850040I0J-254000D01*
G01*
X107883960Y-51749960D01*
G75*
G02*
X107629960Y-52003960I-254000J0D01*
G01*
X105730040Y-52003960D01*
G75*
G02*
X105476040Y-51749960I0J254000D01*
G01*
G37*
G36*
G01*
X108016040Y-51749960D02*
X108016040Y-49850040D01*
G75*
G02*
X108270040Y-49596040I254000J0D01*
G01*
X110169960Y-49596040D01*
G75*
G02*
X110423960Y-49850040I0J-254000D01*
G01*
X110423960Y-51749960D01*
G75*
G02*
X110169960Y-52003960I-254000J0D01*
G01*
X108270040Y-52003960D01*
G75*
G02*
X108016040Y-51749960I0J254000D01*
G01*
G37*
G36*
G01*
X110556040Y-51749960D02*
X110556040Y-49850040D01*
G75*
G02*
X110810040Y-49596040I254000J0D01*
G01*
X112709960Y-49596040D01*
G75*
G02*
X112963960Y-49850040I0J-254000D01*
G01*
X112963960Y-51749960D01*
G75*
G02*
X112709960Y-52003960I-254000J0D01*
G01*
X110810040Y-52003960D01*
G75*
G02*
X110556040Y-51749960I0J254000D01*
G01*
G37*
G36*
G01*
X102936040Y-54289960D02*
X102936040Y-52390040D01*
G75*
G02*
X103190040Y-52136040I254000J0D01*
G01*
X105089960Y-52136040D01*
G75*
G02*
X105343960Y-52390040I0J-254000D01*
G01*
X105343960Y-54289960D01*
G75*
G02*
X105089960Y-54543960I-254000J0D01*
G01*
X103190040Y-54543960D01*
G75*
G02*
X102936040Y-54289960I0J254000D01*
G01*
G37*
G36*
G01*
X105476040Y-54289960D02*
X105476040Y-52390040D01*
G75*
G02*
X105730040Y-52136040I254000J0D01*
G01*
X107629960Y-52136040D01*
G75*
G02*
X107883960Y-52390040I0J-254000D01*
G01*
X107883960Y-54289960D01*
G75*
G02*
X107629960Y-54543960I-254000J0D01*
G01*
X105730040Y-54543960D01*
G75*
G02*
X105476040Y-54289960I0J254000D01*
G01*
G37*
G36*
G01*
X108016040Y-54289960D02*
X108016040Y-52390040D01*
G75*
G02*
X108270040Y-52136040I254000J0D01*
G01*
X110169960Y-52136040D01*
G75*
G02*
X110423960Y-52390040I0J-254000D01*
G01*
X110423960Y-54289960D01*
G75*
G02*
X110169960Y-54543960I-254000J0D01*
G01*
X108270040Y-54543960D01*
G75*
G02*
X108016040Y-54289960I0J254000D01*
G01*
G37*
G36*
G01*
X110556040Y-54289960D02*
X110556040Y-52390040D01*
G75*
G02*
X110810040Y-52136040I254000J0D01*
G01*
X112709960Y-52136040D01*
G75*
G02*
X112963960Y-52390040I0J-254000D01*
G01*
X112963960Y-54289960D01*
G75*
G02*
X112709960Y-54543960I-254000J0D01*
G01*
X110810040Y-54543960D01*
G75*
G02*
X110556040Y-54289960I0J254000D01*
G01*
G37*
G36*
G01*
X102936040Y-56829960D02*
X102936040Y-54930040D01*
G75*
G02*
X103190040Y-54676040I254000J0D01*
G01*
X105089960Y-54676040D01*
G75*
G02*
X105343960Y-54930040I0J-254000D01*
G01*
X105343960Y-56829960D01*
G75*
G02*
X105089960Y-57083960I-254000J0D01*
G01*
X103190040Y-57083960D01*
G75*
G02*
X102936040Y-56829960I0J254000D01*
G01*
G37*
G36*
G01*
X105476040Y-56829960D02*
X105476040Y-54930040D01*
G75*
G02*
X105730040Y-54676040I254000J0D01*
G01*
X107629960Y-54676040D01*
G75*
G02*
X107883960Y-54930040I0J-254000D01*
G01*
X107883960Y-56829960D01*
G75*
G02*
X107629960Y-57083960I-254000J0D01*
G01*
X105730040Y-57083960D01*
G75*
G02*
X105476040Y-56829960I0J254000D01*
G01*
G37*
G36*
G01*
X108016040Y-56829960D02*
X108016040Y-54930040D01*
G75*
G02*
X108270040Y-54676040I254000J0D01*
G01*
X110169960Y-54676040D01*
G75*
G02*
X110423960Y-54930040I0J-254000D01*
G01*
X110423960Y-56829960D01*
G75*
G02*
X110169960Y-57083960I-254000J0D01*
G01*
X108270040Y-57083960D01*
G75*
G02*
X108016040Y-56829960I0J254000D01*
G01*
G37*
G36*
G01*
X110556040Y-56829960D02*
X110556040Y-54930040D01*
G75*
G02*
X110810040Y-54676040I254000J0D01*
G01*
X112709960Y-54676040D01*
G75*
G02*
X112963960Y-54930040I0J-254000D01*
G01*
X112963960Y-56829960D01*
G75*
G02*
X112709960Y-57083960I-254000J0D01*
G01*
X110810040Y-57083960D01*
G75*
G02*
X110556040Y-56829960I0J254000D01*
G01*
G37*
G36*
G01*
X102936040Y-59369960D02*
X102936040Y-57470040D01*
G75*
G02*
X103190040Y-57216040I254000J0D01*
G01*
X105089960Y-57216040D01*
G75*
G02*
X105343960Y-57470040I0J-254000D01*
G01*
X105343960Y-59369960D01*
G75*
G02*
X105089960Y-59623960I-254000J0D01*
G01*
X103190040Y-59623960D01*
G75*
G02*
X102936040Y-59369960I0J254000D01*
G01*
G37*
G36*
G01*
X105476040Y-59369960D02*
X105476040Y-57470040D01*
G75*
G02*
X105730040Y-57216040I254000J0D01*
G01*
X107629960Y-57216040D01*
G75*
G02*
X107883960Y-57470040I0J-254000D01*
G01*
X107883960Y-59369960D01*
G75*
G02*
X107629960Y-59623960I-254000J0D01*
G01*
X105730040Y-59623960D01*
G75*
G02*
X105476040Y-59369960I0J254000D01*
G01*
G37*
G36*
G01*
X108016040Y-59369960D02*
X108016040Y-57470040D01*
G75*
G02*
X108270040Y-57216040I254000J0D01*
G01*
X110169960Y-57216040D01*
G75*
G02*
X110423960Y-57470040I0J-254000D01*
G01*
X110423960Y-59369960D01*
G75*
G02*
X110169960Y-59623960I-254000J0D01*
G01*
X108270040Y-59623960D01*
G75*
G02*
X108016040Y-59369960I0J254000D01*
G01*
G37*
G36*
G01*
X110556040Y-59369960D02*
X110556040Y-57470040D01*
G75*
G02*
X110810040Y-57216040I254000J0D01*
G01*
X112709960Y-57216040D01*
G75*
G02*
X112963960Y-57470040I0J-254000D01*
G01*
X112963960Y-59369960D01*
G75*
G02*
X112709960Y-59623960I-254000J0D01*
G01*
X110810040Y-59623960D01*
G75*
G02*
X110556040Y-59369960I0J254000D01*
G01*
G37*
G36*
G01*
X102936040Y-61909960D02*
X102936040Y-60010040D01*
G75*
G02*
X103190040Y-59756040I254000J0D01*
G01*
X105089960Y-59756040D01*
G75*
G02*
X105343960Y-60010040I0J-254000D01*
G01*
X105343960Y-61909960D01*
G75*
G02*
X105089960Y-62163960I-254000J0D01*
G01*
X103190040Y-62163960D01*
G75*
G02*
X102936040Y-61909960I0J254000D01*
G01*
G37*
G36*
G01*
X105476040Y-61909960D02*
X105476040Y-60010040D01*
G75*
G02*
X105730040Y-59756040I254000J0D01*
G01*
X107629960Y-59756040D01*
G75*
G02*
X107883960Y-60010040I0J-254000D01*
G01*
X107883960Y-61909960D01*
G75*
G02*
X107629960Y-62163960I-254000J0D01*
G01*
X105730040Y-62163960D01*
G75*
G02*
X105476040Y-61909960I0J254000D01*
G01*
G37*
G36*
G01*
X108016040Y-61909960D02*
X108016040Y-60010040D01*
G75*
G02*
X108270040Y-59756040I254000J0D01*
G01*
X110169960Y-59756040D01*
G75*
G02*
X110423960Y-60010040I0J-254000D01*
G01*
X110423960Y-61909960D01*
G75*
G02*
X110169960Y-62163960I-254000J0D01*
G01*
X108270040Y-62163960D01*
G75*
G02*
X108016040Y-61909960I0J254000D01*
G01*
G37*
G36*
G01*
X110556040Y-61909960D02*
X110556040Y-60010040D01*
G75*
G02*
X110810040Y-59756040I254000J0D01*
G01*
X112709960Y-59756040D01*
G75*
G02*
X112963960Y-60010040I0J-254000D01*
G01*
X112963960Y-61909960D01*
G75*
G02*
X112709960Y-62163960I-254000J0D01*
G01*
X110810040Y-62163960D01*
G75*
G02*
X110556040Y-61909960I0J254000D01*
G01*
G37*
G36*
G01*
X102936040Y-64449960D02*
X102936040Y-62550040D01*
G75*
G02*
X103190040Y-62296040I254000J0D01*
G01*
X105089960Y-62296040D01*
G75*
G02*
X105343960Y-62550040I0J-254000D01*
G01*
X105343960Y-64449960D01*
G75*
G02*
X105089960Y-64703960I-254000J0D01*
G01*
X103190040Y-64703960D01*
G75*
G02*
X102936040Y-64449960I0J254000D01*
G01*
G37*
G36*
G01*
X105476040Y-64449960D02*
X105476040Y-62550040D01*
G75*
G02*
X105730040Y-62296040I254000J0D01*
G01*
X107629960Y-62296040D01*
G75*
G02*
X107883960Y-62550040I0J-254000D01*
G01*
X107883960Y-64449960D01*
G75*
G02*
X107629960Y-64703960I-254000J0D01*
G01*
X105730040Y-64703960D01*
G75*
G02*
X105476040Y-64449960I0J254000D01*
G01*
G37*
G36*
G01*
X108016040Y-64449960D02*
X108016040Y-62550040D01*
G75*
G02*
X108270040Y-62296040I254000J0D01*
G01*
X110169960Y-62296040D01*
G75*
G02*
X110423960Y-62550040I0J-254000D01*
G01*
X110423960Y-64449960D01*
G75*
G02*
X110169960Y-64703960I-254000J0D01*
G01*
X108270040Y-64703960D01*
G75*
G02*
X108016040Y-64449960I0J254000D01*
G01*
G37*
G36*
G01*
X110556040Y-64449960D02*
X110556040Y-62550040D01*
G75*
G02*
X110810040Y-62296040I254000J0D01*
G01*
X112709960Y-62296040D01*
G75*
G02*
X112963960Y-62550040I0J-254000D01*
G01*
X112963960Y-64449960D01*
G75*
G02*
X112709960Y-64703960I-254000J0D01*
G01*
X110810040Y-64703960D01*
G75*
G02*
X110556040Y-64449960I0J254000D01*
G01*
G37*
G36*
G01*
X102936040Y-66989960D02*
X102936040Y-65090040D01*
G75*
G02*
X103190040Y-64836040I254000J0D01*
G01*
X105089960Y-64836040D01*
G75*
G02*
X105343960Y-65090040I0J-254000D01*
G01*
X105343960Y-66989960D01*
G75*
G02*
X105089960Y-67243960I-254000J0D01*
G01*
X103190040Y-67243960D01*
G75*
G02*
X102936040Y-66989960I0J254000D01*
G01*
G37*
G36*
G01*
X105476040Y-66989960D02*
X105476040Y-65090040D01*
G75*
G02*
X105730040Y-64836040I254000J0D01*
G01*
X107629960Y-64836040D01*
G75*
G02*
X107883960Y-65090040I0J-254000D01*
G01*
X107883960Y-66989960D01*
G75*
G02*
X107629960Y-67243960I-254000J0D01*
G01*
X105730040Y-67243960D01*
G75*
G02*
X105476040Y-66989960I0J254000D01*
G01*
G37*
G36*
G01*
X108016040Y-66989960D02*
X108016040Y-65090040D01*
G75*
G02*
X108270040Y-64836040I254000J0D01*
G01*
X110169960Y-64836040D01*
G75*
G02*
X110423960Y-65090040I0J-254000D01*
G01*
X110423960Y-66989960D01*
G75*
G02*
X110169960Y-67243960I-254000J0D01*
G01*
X108270040Y-67243960D01*
G75*
G02*
X108016040Y-66989960I0J254000D01*
G01*
G37*
G36*
G01*
X110556040Y-66989960D02*
X110556040Y-65090040D01*
G75*
G02*
X110810040Y-64836040I254000J0D01*
G01*
X112709960Y-64836040D01*
G75*
G02*
X112963960Y-65090040I0J-254000D01*
G01*
X112963960Y-66989960D01*
G75*
G02*
X112709960Y-67243960I-254000J0D01*
G01*
X110810040Y-67243960D01*
G75*
G02*
X110556040Y-66989960I0J254000D01*
G01*
G37*
G36*
G01*
X102936040Y-69529960D02*
X102936040Y-67630040D01*
G75*
G02*
X103190040Y-67376040I254000J0D01*
G01*
X105089960Y-67376040D01*
G75*
G02*
X105343960Y-67630040I0J-254000D01*
G01*
X105343960Y-69529960D01*
G75*
G02*
X105089960Y-69783960I-254000J0D01*
G01*
X103190040Y-69783960D01*
G75*
G02*
X102936040Y-69529960I0J254000D01*
G01*
G37*
G36*
G01*
X105476040Y-69529960D02*
X105476040Y-67630040D01*
G75*
G02*
X105730040Y-67376040I254000J0D01*
G01*
X107629960Y-67376040D01*
G75*
G02*
X107883960Y-67630040I0J-254000D01*
G01*
X107883960Y-69529960D01*
G75*
G02*
X107629960Y-69783960I-254000J0D01*
G01*
X105730040Y-69783960D01*
G75*
G02*
X105476040Y-69529960I0J254000D01*
G01*
G37*
G36*
G01*
X108016040Y-69529960D02*
X108016040Y-67630040D01*
G75*
G02*
X108270040Y-67376040I254000J0D01*
G01*
X110169960Y-67376040D01*
G75*
G02*
X110423960Y-67630040I0J-254000D01*
G01*
X110423960Y-69529960D01*
G75*
G02*
X110169960Y-69783960I-254000J0D01*
G01*
X108270040Y-69783960D01*
G75*
G02*
X108016040Y-69529960I0J254000D01*
G01*
G37*
G36*
G01*
X110556040Y-69529960D02*
X110556040Y-67630040D01*
G75*
G02*
X110810040Y-67376040I254000J0D01*
G01*
X112709960Y-67376040D01*
G75*
G02*
X112963960Y-67630040I0J-254000D01*
G01*
X112963960Y-69529960D01*
G75*
G02*
X112709960Y-69783960I-254000J0D01*
G01*
X110810040Y-69783960D01*
G75*
G02*
X110556040Y-69529960I0J254000D01*
G01*
G37*
G36*
G01*
X102936040Y-72069960D02*
X102936040Y-70170040D01*
G75*
G02*
X103190040Y-69916040I254000J0D01*
G01*
X105089960Y-69916040D01*
G75*
G02*
X105343960Y-70170040I0J-254000D01*
G01*
X105343960Y-72069960D01*
G75*
G02*
X105089960Y-72323960I-254000J0D01*
G01*
X103190040Y-72323960D01*
G75*
G02*
X102936040Y-72069960I0J254000D01*
G01*
G37*
G36*
G01*
X105476040Y-72069960D02*
X105476040Y-70170040D01*
G75*
G02*
X105730040Y-69916040I254000J0D01*
G01*
X107629960Y-69916040D01*
G75*
G02*
X107883960Y-70170040I0J-254000D01*
G01*
X107883960Y-72069960D01*
G75*
G02*
X107629960Y-72323960I-254000J0D01*
G01*
X105730040Y-72323960D01*
G75*
G02*
X105476040Y-72069960I0J254000D01*
G01*
G37*
G36*
G01*
X108016040Y-72069960D02*
X108016040Y-70170040D01*
G75*
G02*
X108270040Y-69916040I254000J0D01*
G01*
X110169960Y-69916040D01*
G75*
G02*
X110423960Y-70170040I0J-254000D01*
G01*
X110423960Y-72069960D01*
G75*
G02*
X110169960Y-72323960I-254000J0D01*
G01*
X108270040Y-72323960D01*
G75*
G02*
X108016040Y-72069960I0J254000D01*
G01*
G37*
G36*
G01*
X110556040Y-72069960D02*
X110556040Y-70170040D01*
G75*
G02*
X110810040Y-69916040I254000J0D01*
G01*
X112709960Y-69916040D01*
G75*
G02*
X112963960Y-70170040I0J-254000D01*
G01*
X112963960Y-72069960D01*
G75*
G02*
X112709960Y-72323960I-254000J0D01*
G01*
X110810040Y-72323960D01*
G75*
G02*
X110556040Y-72069960I0J254000D01*
G01*
G37*
G36*
G01*
X102936040Y-74609960D02*
X102936040Y-72710040D01*
G75*
G02*
X103190040Y-72456040I254000J0D01*
G01*
X105089960Y-72456040D01*
G75*
G02*
X105343960Y-72710040I0J-254000D01*
G01*
X105343960Y-74609960D01*
G75*
G02*
X105089960Y-74863960I-254000J0D01*
G01*
X103190040Y-74863960D01*
G75*
G02*
X102936040Y-74609960I0J254000D01*
G01*
G37*
G36*
G01*
X105476040Y-74609960D02*
X105476040Y-72710040D01*
G75*
G02*
X105730040Y-72456040I254000J0D01*
G01*
X107629960Y-72456040D01*
G75*
G02*
X107883960Y-72710040I0J-254000D01*
G01*
X107883960Y-74609960D01*
G75*
G02*
X107629960Y-74863960I-254000J0D01*
G01*
X105730040Y-74863960D01*
G75*
G02*
X105476040Y-74609960I0J254000D01*
G01*
G37*
G36*
G01*
X108016040Y-74609960D02*
X108016040Y-72710040D01*
G75*
G02*
X108270040Y-72456040I254000J0D01*
G01*
X110169960Y-72456040D01*
G75*
G02*
X110423960Y-72710040I0J-254000D01*
G01*
X110423960Y-74609960D01*
G75*
G02*
X110169960Y-74863960I-254000J0D01*
G01*
X108270040Y-74863960D01*
G75*
G02*
X108016040Y-74609960I0J254000D01*
G01*
G37*
G36*
G01*
X110556040Y-74609960D02*
X110556040Y-72710040D01*
G75*
G02*
X110810040Y-72456040I254000J0D01*
G01*
X112709960Y-72456040D01*
G75*
G02*
X112963960Y-72710040I0J-254000D01*
G01*
X112963960Y-74609960D01*
G75*
G02*
X112709960Y-74863960I-254000J0D01*
G01*
X110810040Y-74863960D01*
G75*
G02*
X110556040Y-74609960I0J254000D01*
G01*
G37*
G36*
G01*
X102936040Y-77149960D02*
X102936040Y-75250040D01*
G75*
G02*
X103190040Y-74996040I254000J0D01*
G01*
X105089960Y-74996040D01*
G75*
G02*
X105343960Y-75250040I0J-254000D01*
G01*
X105343960Y-77149960D01*
G75*
G02*
X105089960Y-77403960I-254000J0D01*
G01*
X103190040Y-77403960D01*
G75*
G02*
X102936040Y-77149960I0J254000D01*
G01*
G37*
G36*
G01*
X105476040Y-77149960D02*
X105476040Y-75250040D01*
G75*
G02*
X105730040Y-74996040I254000J0D01*
G01*
X107629960Y-74996040D01*
G75*
G02*
X107883960Y-75250040I0J-254000D01*
G01*
X107883960Y-77149960D01*
G75*
G02*
X107629960Y-77403960I-254000J0D01*
G01*
X105730040Y-77403960D01*
G75*
G02*
X105476040Y-77149960I0J254000D01*
G01*
G37*
G36*
G01*
X108016040Y-77149960D02*
X108016040Y-75250040D01*
G75*
G02*
X108270040Y-74996040I254000J0D01*
G01*
X110169960Y-74996040D01*
G75*
G02*
X110423960Y-75250040I0J-254000D01*
G01*
X110423960Y-77149960D01*
G75*
G02*
X110169960Y-77403960I-254000J0D01*
G01*
X108270040Y-77403960D01*
G75*
G02*
X108016040Y-77149960I0J254000D01*
G01*
G37*
G36*
G01*
X110556040Y-77149960D02*
X110556040Y-75250040D01*
G75*
G02*
X110810040Y-74996040I254000J0D01*
G01*
X112709960Y-74996040D01*
G75*
G02*
X112963960Y-75250040I0J-254000D01*
G01*
X112963960Y-77149960D01*
G75*
G02*
X112709960Y-77403960I-254000J0D01*
G01*
X110810040Y-77403960D01*
G75*
G02*
X110556040Y-77149960I0J254000D01*
G01*
G37*
G36*
G01*
X102936040Y-79689960D02*
X102936040Y-77790040D01*
G75*
G02*
X103190040Y-77536040I254000J0D01*
G01*
X105089960Y-77536040D01*
G75*
G02*
X105343960Y-77790040I0J-254000D01*
G01*
X105343960Y-79689960D01*
G75*
G02*
X105089960Y-79943960I-254000J0D01*
G01*
X103190040Y-79943960D01*
G75*
G02*
X102936040Y-79689960I0J254000D01*
G01*
G37*
G36*
G01*
X105476040Y-79689960D02*
X105476040Y-77790040D01*
G75*
G02*
X105730040Y-77536040I254000J0D01*
G01*
X107629960Y-77536040D01*
G75*
G02*
X107883960Y-77790040I0J-254000D01*
G01*
X107883960Y-79689960D01*
G75*
G02*
X107629960Y-79943960I-254000J0D01*
G01*
X105730040Y-79943960D01*
G75*
G02*
X105476040Y-79689960I0J254000D01*
G01*
G37*
G36*
G01*
X108016040Y-79689960D02*
X108016040Y-77790040D01*
G75*
G02*
X108270040Y-77536040I254000J0D01*
G01*
X110169960Y-77536040D01*
G75*
G02*
X110423960Y-77790040I0J-254000D01*
G01*
X110423960Y-79689960D01*
G75*
G02*
X110169960Y-79943960I-254000J0D01*
G01*
X108270040Y-79943960D01*
G75*
G02*
X108016040Y-79689960I0J254000D01*
G01*
G37*
G36*
G01*
X110556040Y-79689960D02*
X110556040Y-77790040D01*
G75*
G02*
X110810040Y-77536040I254000J0D01*
G01*
X112709960Y-77536040D01*
G75*
G02*
X112963960Y-77790040I0J-254000D01*
G01*
X112963960Y-79689960D01*
G75*
G02*
X112709960Y-79943960I-254000J0D01*
G01*
X110810040Y-79943960D01*
G75*
G02*
X110556040Y-79689960I0J254000D01*
G01*
G37*
G36*
G01*
X39436040Y-79689960D02*
X39436040Y-77790040D01*
G75*
G02*
X39690040Y-77536040I254000J0D01*
G01*
X41589960Y-77536040D01*
G75*
G02*
X41843960Y-77790040I0J-254000D01*
G01*
X41843960Y-79689960D01*
G75*
G02*
X41589960Y-79943960I-254000J0D01*
G01*
X39690040Y-79943960D01*
G75*
G02*
X39436040Y-79689960I0J254000D01*
G01*
G37*
G36*
G01*
X41976040Y-79689960D02*
X41976040Y-77790040D01*
G75*
G02*
X42230040Y-77536040I254000J0D01*
G01*
X44129960Y-77536040D01*
G75*
G02*
X44383960Y-77790040I0J-254000D01*
G01*
X44383960Y-79689960D01*
G75*
G02*
X44129960Y-79943960I-254000J0D01*
G01*
X42230040Y-79943960D01*
G75*
G02*
X41976040Y-79689960I0J254000D01*
G01*
G37*
G36*
G01*
X44516040Y-79689960D02*
X44516040Y-77790040D01*
G75*
G02*
X44770040Y-77536040I254000J0D01*
G01*
X46669960Y-77536040D01*
G75*
G02*
X46923960Y-77790040I0J-254000D01*
G01*
X46923960Y-79689960D01*
G75*
G02*
X46669960Y-79943960I-254000J0D01*
G01*
X44770040Y-79943960D01*
G75*
G02*
X44516040Y-79689960I0J254000D01*
G01*
G37*
G36*
G01*
X47056040Y-79689960D02*
X47056040Y-77790040D01*
G75*
G02*
X47310040Y-77536040I254000J0D01*
G01*
X49209960Y-77536040D01*
G75*
G02*
X49463960Y-77790040I0J-254000D01*
G01*
X49463960Y-79689960D01*
G75*
G02*
X49209960Y-79943960I-254000J0D01*
G01*
X47310040Y-79943960D01*
G75*
G02*
X47056040Y-79689960I0J254000D01*
G01*
G37*
G36*
G01*
X39436040Y-77149960D02*
X39436040Y-75250040D01*
G75*
G02*
X39690040Y-74996040I254000J0D01*
G01*
X41589960Y-74996040D01*
G75*
G02*
X41843960Y-75250040I0J-254000D01*
G01*
X41843960Y-77149960D01*
G75*
G02*
X41589960Y-77403960I-254000J0D01*
G01*
X39690040Y-77403960D01*
G75*
G02*
X39436040Y-77149960I0J254000D01*
G01*
G37*
G36*
G01*
X41976040Y-77149960D02*
X41976040Y-75250040D01*
G75*
G02*
X42230040Y-74996040I254000J0D01*
G01*
X44129960Y-74996040D01*
G75*
G02*
X44383960Y-75250040I0J-254000D01*
G01*
X44383960Y-77149960D01*
G75*
G02*
X44129960Y-77403960I-254000J0D01*
G01*
X42230040Y-77403960D01*
G75*
G02*
X41976040Y-77149960I0J254000D01*
G01*
G37*
G36*
G01*
X44516040Y-77149960D02*
X44516040Y-75250040D01*
G75*
G02*
X44770040Y-74996040I254000J0D01*
G01*
X46669960Y-74996040D01*
G75*
G02*
X46923960Y-75250040I0J-254000D01*
G01*
X46923960Y-77149960D01*
G75*
G02*
X46669960Y-77403960I-254000J0D01*
G01*
X44770040Y-77403960D01*
G75*
G02*
X44516040Y-77149960I0J254000D01*
G01*
G37*
G36*
G01*
X47056040Y-77149960D02*
X47056040Y-75250040D01*
G75*
G02*
X47310040Y-74996040I254000J0D01*
G01*
X49209960Y-74996040D01*
G75*
G02*
X49463960Y-75250040I0J-254000D01*
G01*
X49463960Y-77149960D01*
G75*
G02*
X49209960Y-77403960I-254000J0D01*
G01*
X47310040Y-77403960D01*
G75*
G02*
X47056040Y-77149960I0J254000D01*
G01*
G37*
G36*
G01*
X39436040Y-74609960D02*
X39436040Y-72710040D01*
G75*
G02*
X39690040Y-72456040I254000J0D01*
G01*
X41589960Y-72456040D01*
G75*
G02*
X41843960Y-72710040I0J-254000D01*
G01*
X41843960Y-74609960D01*
G75*
G02*
X41589960Y-74863960I-254000J0D01*
G01*
X39690040Y-74863960D01*
G75*
G02*
X39436040Y-74609960I0J254000D01*
G01*
G37*
G36*
G01*
X41976040Y-74609960D02*
X41976040Y-72710040D01*
G75*
G02*
X42230040Y-72456040I254000J0D01*
G01*
X44129960Y-72456040D01*
G75*
G02*
X44383960Y-72710040I0J-254000D01*
G01*
X44383960Y-74609960D01*
G75*
G02*
X44129960Y-74863960I-254000J0D01*
G01*
X42230040Y-74863960D01*
G75*
G02*
X41976040Y-74609960I0J254000D01*
G01*
G37*
G36*
G01*
X44516040Y-74609960D02*
X44516040Y-72710040D01*
G75*
G02*
X44770040Y-72456040I254000J0D01*
G01*
X46669960Y-72456040D01*
G75*
G02*
X46923960Y-72710040I0J-254000D01*
G01*
X46923960Y-74609960D01*
G75*
G02*
X46669960Y-74863960I-254000J0D01*
G01*
X44770040Y-74863960D01*
G75*
G02*
X44516040Y-74609960I0J254000D01*
G01*
G37*
G36*
G01*
X47056040Y-74609960D02*
X47056040Y-72710040D01*
G75*
G02*
X47310040Y-72456040I254000J0D01*
G01*
X49209960Y-72456040D01*
G75*
G02*
X49463960Y-72710040I0J-254000D01*
G01*
X49463960Y-74609960D01*
G75*
G02*
X49209960Y-74863960I-254000J0D01*
G01*
X47310040Y-74863960D01*
G75*
G02*
X47056040Y-74609960I0J254000D01*
G01*
G37*
G36*
G01*
X39436040Y-72069960D02*
X39436040Y-70170040D01*
G75*
G02*
X39690040Y-69916040I254000J0D01*
G01*
X41589960Y-69916040D01*
G75*
G02*
X41843960Y-70170040I0J-254000D01*
G01*
X41843960Y-72069960D01*
G75*
G02*
X41589960Y-72323960I-254000J0D01*
G01*
X39690040Y-72323960D01*
G75*
G02*
X39436040Y-72069960I0J254000D01*
G01*
G37*
G36*
G01*
X41976040Y-72069960D02*
X41976040Y-70170040D01*
G75*
G02*
X42230040Y-69916040I254000J0D01*
G01*
X44129960Y-69916040D01*
G75*
G02*
X44383960Y-70170040I0J-254000D01*
G01*
X44383960Y-72069960D01*
G75*
G02*
X44129960Y-72323960I-254000J0D01*
G01*
X42230040Y-72323960D01*
G75*
G02*
X41976040Y-72069960I0J254000D01*
G01*
G37*
G36*
G01*
X44516040Y-72069960D02*
X44516040Y-70170040D01*
G75*
G02*
X44770040Y-69916040I254000J0D01*
G01*
X46669960Y-69916040D01*
G75*
G02*
X46923960Y-70170040I0J-254000D01*
G01*
X46923960Y-72069960D01*
G75*
G02*
X46669960Y-72323960I-254000J0D01*
G01*
X44770040Y-72323960D01*
G75*
G02*
X44516040Y-72069960I0J254000D01*
G01*
G37*
G36*
G01*
X47056040Y-72069960D02*
X47056040Y-70170040D01*
G75*
G02*
X47310040Y-69916040I254000J0D01*
G01*
X49209960Y-69916040D01*
G75*
G02*
X49463960Y-70170040I0J-254000D01*
G01*
X49463960Y-72069960D01*
G75*
G02*
X49209960Y-72323960I-254000J0D01*
G01*
X47310040Y-72323960D01*
G75*
G02*
X47056040Y-72069960I0J254000D01*
G01*
G37*
G36*
G01*
X39436040Y-69529960D02*
X39436040Y-67630040D01*
G75*
G02*
X39690040Y-67376040I254000J0D01*
G01*
X41589960Y-67376040D01*
G75*
G02*
X41843960Y-67630040I0J-254000D01*
G01*
X41843960Y-69529960D01*
G75*
G02*
X41589960Y-69783960I-254000J0D01*
G01*
X39690040Y-69783960D01*
G75*
G02*
X39436040Y-69529960I0J254000D01*
G01*
G37*
G36*
G01*
X41976040Y-69529960D02*
X41976040Y-67630040D01*
G75*
G02*
X42230040Y-67376040I254000J0D01*
G01*
X44129960Y-67376040D01*
G75*
G02*
X44383960Y-67630040I0J-254000D01*
G01*
X44383960Y-69529960D01*
G75*
G02*
X44129960Y-69783960I-254000J0D01*
G01*
X42230040Y-69783960D01*
G75*
G02*
X41976040Y-69529960I0J254000D01*
G01*
G37*
G36*
G01*
X44516040Y-69529960D02*
X44516040Y-67630040D01*
G75*
G02*
X44770040Y-67376040I254000J0D01*
G01*
X46669960Y-67376040D01*
G75*
G02*
X46923960Y-67630040I0J-254000D01*
G01*
X46923960Y-69529960D01*
G75*
G02*
X46669960Y-69783960I-254000J0D01*
G01*
X44770040Y-69783960D01*
G75*
G02*
X44516040Y-69529960I0J254000D01*
G01*
G37*
G36*
G01*
X47056040Y-69529960D02*
X47056040Y-67630040D01*
G75*
G02*
X47310040Y-67376040I254000J0D01*
G01*
X49209960Y-67376040D01*
G75*
G02*
X49463960Y-67630040I0J-254000D01*
G01*
X49463960Y-69529960D01*
G75*
G02*
X49209960Y-69783960I-254000J0D01*
G01*
X47310040Y-69783960D01*
G75*
G02*
X47056040Y-69529960I0J254000D01*
G01*
G37*
G36*
G01*
X39436040Y-66989960D02*
X39436040Y-65090040D01*
G75*
G02*
X39690040Y-64836040I254000J0D01*
G01*
X41589960Y-64836040D01*
G75*
G02*
X41843960Y-65090040I0J-254000D01*
G01*
X41843960Y-66989960D01*
G75*
G02*
X41589960Y-67243960I-254000J0D01*
G01*
X39690040Y-67243960D01*
G75*
G02*
X39436040Y-66989960I0J254000D01*
G01*
G37*
G36*
G01*
X41976040Y-66989960D02*
X41976040Y-65090040D01*
G75*
G02*
X42230040Y-64836040I254000J0D01*
G01*
X44129960Y-64836040D01*
G75*
G02*
X44383960Y-65090040I0J-254000D01*
G01*
X44383960Y-66989960D01*
G75*
G02*
X44129960Y-67243960I-254000J0D01*
G01*
X42230040Y-67243960D01*
G75*
G02*
X41976040Y-66989960I0J254000D01*
G01*
G37*
G36*
G01*
X44516040Y-66989960D02*
X44516040Y-65090040D01*
G75*
G02*
X44770040Y-64836040I254000J0D01*
G01*
X46669960Y-64836040D01*
G75*
G02*
X46923960Y-65090040I0J-254000D01*
G01*
X46923960Y-66989960D01*
G75*
G02*
X46669960Y-67243960I-254000J0D01*
G01*
X44770040Y-67243960D01*
G75*
G02*
X44516040Y-66989960I0J254000D01*
G01*
G37*
G36*
G01*
X47056040Y-66989960D02*
X47056040Y-65090040D01*
G75*
G02*
X47310040Y-64836040I254000J0D01*
G01*
X49209960Y-64836040D01*
G75*
G02*
X49463960Y-65090040I0J-254000D01*
G01*
X49463960Y-66989960D01*
G75*
G02*
X49209960Y-67243960I-254000J0D01*
G01*
X47310040Y-67243960D01*
G75*
G02*
X47056040Y-66989960I0J254000D01*
G01*
G37*
G36*
G01*
X39436040Y-64449960D02*
X39436040Y-62550040D01*
G75*
G02*
X39690040Y-62296040I254000J0D01*
G01*
X41589960Y-62296040D01*
G75*
G02*
X41843960Y-62550040I0J-254000D01*
G01*
X41843960Y-64449960D01*
G75*
G02*
X41589960Y-64703960I-254000J0D01*
G01*
X39690040Y-64703960D01*
G75*
G02*
X39436040Y-64449960I0J254000D01*
G01*
G37*
G36*
G01*
X41976040Y-64449960D02*
X41976040Y-62550040D01*
G75*
G02*
X42230040Y-62296040I254000J0D01*
G01*
X44129960Y-62296040D01*
G75*
G02*
X44383960Y-62550040I0J-254000D01*
G01*
X44383960Y-64449960D01*
G75*
G02*
X44129960Y-64703960I-254000J0D01*
G01*
X42230040Y-64703960D01*
G75*
G02*
X41976040Y-64449960I0J254000D01*
G01*
G37*
G36*
G01*
X44516040Y-64449960D02*
X44516040Y-62550040D01*
G75*
G02*
X44770040Y-62296040I254000J0D01*
G01*
X46669960Y-62296040D01*
G75*
G02*
X46923960Y-62550040I0J-254000D01*
G01*
X46923960Y-64449960D01*
G75*
G02*
X46669960Y-64703960I-254000J0D01*
G01*
X44770040Y-64703960D01*
G75*
G02*
X44516040Y-64449960I0J254000D01*
G01*
G37*
G36*
G01*
X47056040Y-64449960D02*
X47056040Y-62550040D01*
G75*
G02*
X47310040Y-62296040I254000J0D01*
G01*
X49209960Y-62296040D01*
G75*
G02*
X49463960Y-62550040I0J-254000D01*
G01*
X49463960Y-64449960D01*
G75*
G02*
X49209960Y-64703960I-254000J0D01*
G01*
X47310040Y-64703960D01*
G75*
G02*
X47056040Y-64449960I0J254000D01*
G01*
G37*
G36*
G01*
X39436040Y-61909960D02*
X39436040Y-60010040D01*
G75*
G02*
X39690040Y-59756040I254000J0D01*
G01*
X41589960Y-59756040D01*
G75*
G02*
X41843960Y-60010040I0J-254000D01*
G01*
X41843960Y-61909960D01*
G75*
G02*
X41589960Y-62163960I-254000J0D01*
G01*
X39690040Y-62163960D01*
G75*
G02*
X39436040Y-61909960I0J254000D01*
G01*
G37*
G36*
G01*
X41976040Y-61909960D02*
X41976040Y-60010040D01*
G75*
G02*
X42230040Y-59756040I254000J0D01*
G01*
X44129960Y-59756040D01*
G75*
G02*
X44383960Y-60010040I0J-254000D01*
G01*
X44383960Y-61909960D01*
G75*
G02*
X44129960Y-62163960I-254000J0D01*
G01*
X42230040Y-62163960D01*
G75*
G02*
X41976040Y-61909960I0J254000D01*
G01*
G37*
G36*
G01*
X44516040Y-61909960D02*
X44516040Y-60010040D01*
G75*
G02*
X44770040Y-59756040I254000J0D01*
G01*
X46669960Y-59756040D01*
G75*
G02*
X46923960Y-60010040I0J-254000D01*
G01*
X46923960Y-61909960D01*
G75*
G02*
X46669960Y-62163960I-254000J0D01*
G01*
X44770040Y-62163960D01*
G75*
G02*
X44516040Y-61909960I0J254000D01*
G01*
G37*
G36*
G01*
X47056040Y-61909960D02*
X47056040Y-60010040D01*
G75*
G02*
X47310040Y-59756040I254000J0D01*
G01*
X49209960Y-59756040D01*
G75*
G02*
X49463960Y-60010040I0J-254000D01*
G01*
X49463960Y-61909960D01*
G75*
G02*
X49209960Y-62163960I-254000J0D01*
G01*
X47310040Y-62163960D01*
G75*
G02*
X47056040Y-61909960I0J254000D01*
G01*
G37*
G36*
G01*
X39436040Y-59369960D02*
X39436040Y-57470040D01*
G75*
G02*
X39690040Y-57216040I254000J0D01*
G01*
X41589960Y-57216040D01*
G75*
G02*
X41843960Y-57470040I0J-254000D01*
G01*
X41843960Y-59369960D01*
G75*
G02*
X41589960Y-59623960I-254000J0D01*
G01*
X39690040Y-59623960D01*
G75*
G02*
X39436040Y-59369960I0J254000D01*
G01*
G37*
G36*
G01*
X41976040Y-59369960D02*
X41976040Y-57470040D01*
G75*
G02*
X42230040Y-57216040I254000J0D01*
G01*
X44129960Y-57216040D01*
G75*
G02*
X44383960Y-57470040I0J-254000D01*
G01*
X44383960Y-59369960D01*
G75*
G02*
X44129960Y-59623960I-254000J0D01*
G01*
X42230040Y-59623960D01*
G75*
G02*
X41976040Y-59369960I0J254000D01*
G01*
G37*
G36*
G01*
X44516040Y-59369960D02*
X44516040Y-57470040D01*
G75*
G02*
X44770040Y-57216040I254000J0D01*
G01*
X46669960Y-57216040D01*
G75*
G02*
X46923960Y-57470040I0J-254000D01*
G01*
X46923960Y-59369960D01*
G75*
G02*
X46669960Y-59623960I-254000J0D01*
G01*
X44770040Y-59623960D01*
G75*
G02*
X44516040Y-59369960I0J254000D01*
G01*
G37*
G36*
G01*
X47056040Y-59369960D02*
X47056040Y-57470040D01*
G75*
G02*
X47310040Y-57216040I254000J0D01*
G01*
X49209960Y-57216040D01*
G75*
G02*
X49463960Y-57470040I0J-254000D01*
G01*
X49463960Y-59369960D01*
G75*
G02*
X49209960Y-59623960I-254000J0D01*
G01*
X47310040Y-59623960D01*
G75*
G02*
X47056040Y-59369960I0J254000D01*
G01*
G37*
G36*
G01*
X39436040Y-56829960D02*
X39436040Y-54930040D01*
G75*
G02*
X39690040Y-54676040I254000J0D01*
G01*
X41589960Y-54676040D01*
G75*
G02*
X41843960Y-54930040I0J-254000D01*
G01*
X41843960Y-56829960D01*
G75*
G02*
X41589960Y-57083960I-254000J0D01*
G01*
X39690040Y-57083960D01*
G75*
G02*
X39436040Y-56829960I0J254000D01*
G01*
G37*
G36*
G01*
X41976040Y-56829960D02*
X41976040Y-54930040D01*
G75*
G02*
X42230040Y-54676040I254000J0D01*
G01*
X44129960Y-54676040D01*
G75*
G02*
X44383960Y-54930040I0J-254000D01*
G01*
X44383960Y-56829960D01*
G75*
G02*
X44129960Y-57083960I-254000J0D01*
G01*
X42230040Y-57083960D01*
G75*
G02*
X41976040Y-56829960I0J254000D01*
G01*
G37*
G36*
G01*
X44516040Y-56829960D02*
X44516040Y-54930040D01*
G75*
G02*
X44770040Y-54676040I254000J0D01*
G01*
X46669960Y-54676040D01*
G75*
G02*
X46923960Y-54930040I0J-254000D01*
G01*
X46923960Y-56829960D01*
G75*
G02*
X46669960Y-57083960I-254000J0D01*
G01*
X44770040Y-57083960D01*
G75*
G02*
X44516040Y-56829960I0J254000D01*
G01*
G37*
G36*
G01*
X47056040Y-56829960D02*
X47056040Y-54930040D01*
G75*
G02*
X47310040Y-54676040I254000J0D01*
G01*
X49209960Y-54676040D01*
G75*
G02*
X49463960Y-54930040I0J-254000D01*
G01*
X49463960Y-56829960D01*
G75*
G02*
X49209960Y-57083960I-254000J0D01*
G01*
X47310040Y-57083960D01*
G75*
G02*
X47056040Y-56829960I0J254000D01*
G01*
G37*
G36*
G01*
X39436040Y-54289960D02*
X39436040Y-52390040D01*
G75*
G02*
X39690040Y-52136040I254000J0D01*
G01*
X41589960Y-52136040D01*
G75*
G02*
X41843960Y-52390040I0J-254000D01*
G01*
X41843960Y-54289960D01*
G75*
G02*
X41589960Y-54543960I-254000J0D01*
G01*
X39690040Y-54543960D01*
G75*
G02*
X39436040Y-54289960I0J254000D01*
G01*
G37*
G36*
G01*
X41976040Y-54289960D02*
X41976040Y-52390040D01*
G75*
G02*
X42230040Y-52136040I254000J0D01*
G01*
X44129960Y-52136040D01*
G75*
G02*
X44383960Y-52390040I0J-254000D01*
G01*
X44383960Y-54289960D01*
G75*
G02*
X44129960Y-54543960I-254000J0D01*
G01*
X42230040Y-54543960D01*
G75*
G02*
X41976040Y-54289960I0J254000D01*
G01*
G37*
G36*
G01*
X44516040Y-54289960D02*
X44516040Y-52390040D01*
G75*
G02*
X44770040Y-52136040I254000J0D01*
G01*
X46669960Y-52136040D01*
G75*
G02*
X46923960Y-52390040I0J-254000D01*
G01*
X46923960Y-54289960D01*
G75*
G02*
X46669960Y-54543960I-254000J0D01*
G01*
X44770040Y-54543960D01*
G75*
G02*
X44516040Y-54289960I0J254000D01*
G01*
G37*
G36*
G01*
X47056040Y-54289960D02*
X47056040Y-52390040D01*
G75*
G02*
X47310040Y-52136040I254000J0D01*
G01*
X49209960Y-52136040D01*
G75*
G02*
X49463960Y-52390040I0J-254000D01*
G01*
X49463960Y-54289960D01*
G75*
G02*
X49209960Y-54543960I-254000J0D01*
G01*
X47310040Y-54543960D01*
G75*
G02*
X47056040Y-54289960I0J254000D01*
G01*
G37*
G36*
G01*
X39436040Y-51749960D02*
X39436040Y-49850040D01*
G75*
G02*
X39690040Y-49596040I254000J0D01*
G01*
X41589960Y-49596040D01*
G75*
G02*
X41843960Y-49850040I0J-254000D01*
G01*
X41843960Y-51749960D01*
G75*
G02*
X41589960Y-52003960I-254000J0D01*
G01*
X39690040Y-52003960D01*
G75*
G02*
X39436040Y-51749960I0J254000D01*
G01*
G37*
G36*
G01*
X41976040Y-51749960D02*
X41976040Y-49850040D01*
G75*
G02*
X42230040Y-49596040I254000J0D01*
G01*
X44129960Y-49596040D01*
G75*
G02*
X44383960Y-49850040I0J-254000D01*
G01*
X44383960Y-51749960D01*
G75*
G02*
X44129960Y-52003960I-254000J0D01*
G01*
X42230040Y-52003960D01*
G75*
G02*
X41976040Y-51749960I0J254000D01*
G01*
G37*
G36*
G01*
X44516040Y-51749960D02*
X44516040Y-49850040D01*
G75*
G02*
X44770040Y-49596040I254000J0D01*
G01*
X46669960Y-49596040D01*
G75*
G02*
X46923960Y-49850040I0J-254000D01*
G01*
X46923960Y-51749960D01*
G75*
G02*
X46669960Y-52003960I-254000J0D01*
G01*
X44770040Y-52003960D01*
G75*
G02*
X44516040Y-51749960I0J254000D01*
G01*
G37*
G36*
G01*
X47056040Y-51749960D02*
X47056040Y-49850040D01*
G75*
G02*
X47310040Y-49596040I254000J0D01*
G01*
X49209960Y-49596040D01*
G75*
G02*
X49463960Y-49850040I0J-254000D01*
G01*
X49463960Y-51749960D01*
G75*
G02*
X49209960Y-52003960I-254000J0D01*
G01*
X47310040Y-52003960D01*
G75*
G02*
X47056040Y-51749960I0J254000D01*
G01*
G37*
G36*
G01*
X39436040Y-49209960D02*
X39436040Y-47310040D01*
G75*
G02*
X39690040Y-47056040I254000J0D01*
G01*
X41589960Y-47056040D01*
G75*
G02*
X41843960Y-47310040I0J-254000D01*
G01*
X41843960Y-49209960D01*
G75*
G02*
X41589960Y-49463960I-254000J0D01*
G01*
X39690040Y-49463960D01*
G75*
G02*
X39436040Y-49209960I0J254000D01*
G01*
G37*
G36*
G01*
X41976040Y-49209960D02*
X41976040Y-47310040D01*
G75*
G02*
X42230040Y-47056040I254000J0D01*
G01*
X44129960Y-47056040D01*
G75*
G02*
X44383960Y-47310040I0J-254000D01*
G01*
X44383960Y-49209960D01*
G75*
G02*
X44129960Y-49463960I-254000J0D01*
G01*
X42230040Y-49463960D01*
G75*
G02*
X41976040Y-49209960I0J254000D01*
G01*
G37*
G36*
G01*
X44516040Y-49209960D02*
X44516040Y-47310040D01*
G75*
G02*
X44770040Y-47056040I254000J0D01*
G01*
X46669960Y-47056040D01*
G75*
G02*
X46923960Y-47310040I0J-254000D01*
G01*
X46923960Y-49209960D01*
G75*
G02*
X46669960Y-49463960I-254000J0D01*
G01*
X44770040Y-49463960D01*
G75*
G02*
X44516040Y-49209960I0J254000D01*
G01*
G37*
G36*
G01*
X47056040Y-49209960D02*
X47056040Y-47310040D01*
G75*
G02*
X47310040Y-47056040I254000J0D01*
G01*
X49209960Y-47056040D01*
G75*
G02*
X49463960Y-47310040I0J-254000D01*
G01*
X49463960Y-49209960D01*
G75*
G02*
X49209960Y-49463960I-254000J0D01*
G01*
X47310040Y-49463960D01*
G75*
G02*
X47056040Y-49209960I0J254000D01*
G01*
G37*
G36*
G01*
X39436040Y-46669960D02*
X39436040Y-44770040D01*
G75*
G02*
X39690040Y-44516040I254000J0D01*
G01*
X41589960Y-44516040D01*
G75*
G02*
X41843960Y-44770040I0J-254000D01*
G01*
X41843960Y-46669960D01*
G75*
G02*
X41589960Y-46923960I-254000J0D01*
G01*
X39690040Y-46923960D01*
G75*
G02*
X39436040Y-46669960I0J254000D01*
G01*
G37*
G36*
G01*
X41976040Y-46669960D02*
X41976040Y-44770040D01*
G75*
G02*
X42230040Y-44516040I254000J0D01*
G01*
X44129960Y-44516040D01*
G75*
G02*
X44383960Y-44770040I0J-254000D01*
G01*
X44383960Y-46669960D01*
G75*
G02*
X44129960Y-46923960I-254000J0D01*
G01*
X42230040Y-46923960D01*
G75*
G02*
X41976040Y-46669960I0J254000D01*
G01*
G37*
G36*
G01*
X44516040Y-46669960D02*
X44516040Y-44770040D01*
G75*
G02*
X44770040Y-44516040I254000J0D01*
G01*
X46669960Y-44516040D01*
G75*
G02*
X46923960Y-44770040I0J-254000D01*
G01*
X46923960Y-46669960D01*
G75*
G02*
X46669960Y-46923960I-254000J0D01*
G01*
X44770040Y-46923960D01*
G75*
G02*
X44516040Y-46669960I0J254000D01*
G01*
G37*
G36*
G01*
X47056040Y-46669960D02*
X47056040Y-44770040D01*
G75*
G02*
X47310040Y-44516040I254000J0D01*
G01*
X49209960Y-44516040D01*
G75*
G02*
X49463960Y-44770040I0J-254000D01*
G01*
X49463960Y-46669960D01*
G75*
G02*
X49209960Y-46923960I-254000J0D01*
G01*
X47310040Y-46923960D01*
G75*
G02*
X47056040Y-46669960I0J254000D01*
G01*
G37*
G36*
G01*
X39436040Y-44129960D02*
X39436040Y-42230040D01*
G75*
G02*
X39690040Y-41976040I254000J0D01*
G01*
X41589960Y-41976040D01*
G75*
G02*
X41843960Y-42230040I0J-254000D01*
G01*
X41843960Y-44129960D01*
G75*
G02*
X41589960Y-44383960I-254000J0D01*
G01*
X39690040Y-44383960D01*
G75*
G02*
X39436040Y-44129960I0J254000D01*
G01*
G37*
G36*
G01*
X41976040Y-44129960D02*
X41976040Y-42230040D01*
G75*
G02*
X42230040Y-41976040I254000J0D01*
G01*
X44129960Y-41976040D01*
G75*
G02*
X44383960Y-42230040I0J-254000D01*
G01*
X44383960Y-44129960D01*
G75*
G02*
X44129960Y-44383960I-254000J0D01*
G01*
X42230040Y-44383960D01*
G75*
G02*
X41976040Y-44129960I0J254000D01*
G01*
G37*
G36*
G01*
X44516040Y-44129960D02*
X44516040Y-42230040D01*
G75*
G02*
X44770040Y-41976040I254000J0D01*
G01*
X46669960Y-41976040D01*
G75*
G02*
X46923960Y-42230040I0J-254000D01*
G01*
X46923960Y-44129960D01*
G75*
G02*
X46669960Y-44383960I-254000J0D01*
G01*
X44770040Y-44383960D01*
G75*
G02*
X44516040Y-44129960I0J254000D01*
G01*
G37*
G36*
G01*
X47056040Y-44129960D02*
X47056040Y-42230040D01*
G75*
G02*
X47310040Y-41976040I254000J0D01*
G01*
X49209960Y-41976040D01*
G75*
G02*
X49463960Y-42230040I0J-254000D01*
G01*
X49463960Y-44129960D01*
G75*
G02*
X49209960Y-44383960I-254000J0D01*
G01*
X47310040Y-44383960D01*
G75*
G02*
X47056040Y-44129960I0J254000D01*
G01*
G37*
G36*
G01*
X47056040Y-41589960D02*
X47056040Y-39690040D01*
G75*
G02*
X47310040Y-39436040I254000J0D01*
G01*
X49209960Y-39436040D01*
G75*
G02*
X49463960Y-39690040I0J-254000D01*
G01*
X49463960Y-41589960D01*
G75*
G02*
X49209960Y-41843960I-254000J0D01*
G01*
X47310040Y-41843960D01*
G75*
G02*
X47056040Y-41589960I0J254000D01*
G01*
G37*
G36*
G01*
X47056040Y-82229960D02*
X47056040Y-80330040D01*
G75*
G02*
X47310040Y-80076040I254000J0D01*
G01*
X49209960Y-80076040D01*
G75*
G02*
X49463960Y-80330040I0J-254000D01*
G01*
X49463960Y-82229960D01*
G75*
G02*
X49209960Y-82483960I-254000J0D01*
G01*
X47310040Y-82483960D01*
G75*
G02*
X47056040Y-82229960I0J254000D01*
G01*
G37*
G36*
G01*
X102936040Y-82229960D02*
X102936040Y-80330040D01*
G75*
G02*
X103190040Y-80076040I254000J0D01*
G01*
X105089960Y-80076040D01*
G75*
G02*
X105343960Y-80330040I0J-254000D01*
G01*
X105343960Y-82229960D01*
G75*
G02*
X105089960Y-82483960I-254000J0D01*
G01*
X103190040Y-82483960D01*
G75*
G02*
X102936040Y-82229960I0J254000D01*
G01*
G37*
G36*
G01*
X102936040Y-41589960D02*
X102936040Y-39690040D01*
G75*
G02*
X103190040Y-39436040I254000J0D01*
G01*
X105089960Y-39436040D01*
G75*
G02*
X105343960Y-39690040I0J-254000D01*
G01*
X105343960Y-41589960D01*
G75*
G02*
X105089960Y-41843960I-254000J0D01*
G01*
X103190040Y-41843960D01*
G75*
G02*
X102936040Y-41589960I0J254000D01*
G01*
G37*
G36*
G01*
X44516040Y-41589960D02*
X44516040Y-39690040D01*
G75*
G02*
X44770040Y-39436040I254000J0D01*
G01*
X46669960Y-39436040D01*
G75*
G02*
X46923960Y-39690040I0J-254000D01*
G01*
X46923960Y-41589960D01*
G75*
G02*
X46669960Y-41843960I-254000J0D01*
G01*
X44770040Y-41843960D01*
G75*
G02*
X44516040Y-41589960I0J254000D01*
G01*
G37*
G36*
G01*
X41976040Y-41589960D02*
X41976040Y-39690040D01*
G75*
G02*
X42230040Y-39436040I254000J0D01*
G01*
X44129960Y-39436040D01*
G75*
G02*
X44383960Y-39690040I0J-254000D01*
G01*
X44383960Y-41589960D01*
G75*
G02*
X44129960Y-41843960I-254000J0D01*
G01*
X42230040Y-41843960D01*
G75*
G02*
X41976040Y-41589960I0J254000D01*
G01*
G37*
G36*
G01*
X44516040Y-82229960D02*
X44516040Y-80330040D01*
G75*
G02*
X44770040Y-80076040I254000J0D01*
G01*
X46669960Y-80076040D01*
G75*
G02*
X46923960Y-80330040I0J-254000D01*
G01*
X46923960Y-82229960D01*
G75*
G02*
X46669960Y-82483960I-254000J0D01*
G01*
X44770040Y-82483960D01*
G75*
G02*
X44516040Y-82229960I0J254000D01*
G01*
G37*
G36*
G01*
X41976040Y-82229960D02*
X41976040Y-80330040D01*
G75*
G02*
X42230040Y-80076040I254000J0D01*
G01*
X44129960Y-80076040D01*
G75*
G02*
X44383960Y-80330040I0J-254000D01*
G01*
X44383960Y-82229960D01*
G75*
G02*
X44129960Y-82483960I-254000J0D01*
G01*
X42230040Y-82483960D01*
G75*
G02*
X41976040Y-82229960I0J254000D01*
G01*
G37*
G36*
G01*
X105476040Y-82229960D02*
X105476040Y-80330040D01*
G75*
G02*
X105730040Y-80076040I254000J0D01*
G01*
X107629960Y-80076040D01*
G75*
G02*
X107883960Y-80330040I0J-254000D01*
G01*
X107883960Y-82229960D01*
G75*
G02*
X107629960Y-82483960I-254000J0D01*
G01*
X105730040Y-82483960D01*
G75*
G02*
X105476040Y-82229960I0J254000D01*
G01*
G37*
G36*
G01*
X108016040Y-82229960D02*
X108016040Y-80330040D01*
G75*
G02*
X108270040Y-80076040I254000J0D01*
G01*
X110169960Y-80076040D01*
G75*
G02*
X110423960Y-80330040I0J-254000D01*
G01*
X110423960Y-82229960D01*
G75*
G02*
X110169960Y-82483960I-254000J0D01*
G01*
X108270040Y-82483960D01*
G75*
G02*
X108016040Y-82229960I0J254000D01*
G01*
G37*
G36*
G01*
X105476040Y-41589960D02*
X105476040Y-39690040D01*
G75*
G02*
X105730040Y-39436040I254000J0D01*
G01*
X107629960Y-39436040D01*
G75*
G02*
X107883960Y-39690040I0J-254000D01*
G01*
X107883960Y-41589960D01*
G75*
G02*
X107629960Y-41843960I-254000J0D01*
G01*
X105730040Y-41843960D01*
G75*
G02*
X105476040Y-41589960I0J254000D01*
G01*
G37*
G36*
G01*
X108016040Y-41589960D02*
X108016040Y-39690040D01*
G75*
G02*
X108270040Y-39436040I254000J0D01*
G01*
X110169960Y-39436040D01*
G75*
G02*
X110423960Y-39690040I0J-254000D01*
G01*
X110423960Y-41589960D01*
G75*
G02*
X110169960Y-41843960I-254000J0D01*
G01*
X108270040Y-41843960D01*
G75*
G02*
X108016040Y-41589960I0J254000D01*
G01*
G37*
G36*
G01*
X39436040Y-41589960D02*
X39436040Y-39690040D01*
G75*
G02*
X39690040Y-39436040I254000J0D01*
G01*
X41589960Y-39436040D01*
G75*
G02*
X41843960Y-39690040I0J-254000D01*
G01*
X41843960Y-41589960D01*
G75*
G02*
X41589960Y-41843960I-254000J0D01*
G01*
X39690040Y-41843960D01*
G75*
G02*
X39436040Y-41589960I0J254000D01*
G01*
G37*
G36*
G01*
X39436040Y-82229960D02*
X39436040Y-80330040D01*
G75*
G02*
X39690040Y-80076040I254000J0D01*
G01*
X41589960Y-80076040D01*
G75*
G02*
X41843960Y-80330040I0J-254000D01*
G01*
X41843960Y-82229960D01*
G75*
G02*
X41589960Y-82483960I-254000J0D01*
G01*
X39690040Y-82483960D01*
G75*
G02*
X39436040Y-82229960I0J254000D01*
G01*
G37*
G36*
G01*
X110556040Y-82229960D02*
X110556040Y-80330040D01*
G75*
G02*
X110810040Y-80076040I254000J0D01*
G01*
X112709960Y-80076040D01*
G75*
G02*
X112963960Y-80330040I0J-254000D01*
G01*
X112963960Y-82229960D01*
G75*
G02*
X112709960Y-82483960I-254000J0D01*
G01*
X110810040Y-82483960D01*
G75*
G02*
X110556040Y-82229960I0J254000D01*
G01*
G37*
G36*
G01*
X110556040Y-41589960D02*
X110556040Y-39690040D01*
G75*
G02*
X110810040Y-39436040I254000J0D01*
G01*
X112709960Y-39436040D01*
G75*
G02*
X112963960Y-39690040I0J-254000D01*
G01*
X112963960Y-41589960D01*
G75*
G02*
X112709960Y-41843960I-254000J0D01*
G01*
X110810040Y-41843960D01*
G75*
G02*
X110556040Y-41589960I0J254000D01*
G01*
G37*
G36*
G01*
X75096000Y-83146000D02*
X75096000Y-81446000D01*
G75*
G02*
X75350000Y-81192000I254000J0D01*
G01*
X77050000Y-81192000D01*
G75*
G02*
X77304000Y-81446000I0J-254000D01*
G01*
X77304000Y-83146000D01*
G75*
G02*
X77050000Y-83400000I-254000J0D01*
G01*
X75350000Y-83400000D01*
G75*
G02*
X75096000Y-83146000I0J254000D01*
G01*
G37*
G36*
G01*
X75096000Y-39966000D02*
X75096000Y-38266000D01*
G75*
G02*
X75350000Y-38012000I254000J0D01*
G01*
X77050000Y-38012000D01*
G75*
G02*
X77304000Y-38266000I0J-254000D01*
G01*
X77304000Y-39966000D01*
G75*
G02*
X77050000Y-40220000I-254000J0D01*
G01*
X75350000Y-40220000D01*
G75*
G02*
X75096000Y-39966000I0J254000D01*
G01*
G37*
M02*
